<svg width="116" height="116" viewBox="0 0 116 116" fill="none" xmlns="http://www.w3.org/2000/svg">
<g filter="url(#filter0_d_3_6)">
<path d="M108 54C108 81.6142 85.6142 104 58 104C30.3858 104 8 81.6142 8 54C8 26.3858 30.3858 4 58 4C85.6142 4 108 26.3858 108 54Z" fill="#FFEC0D"/>
<path d="M107 54C107 81.062 85.062 103 58 103C30.938 103 9 81.062 9 54C9 26.938 30.938 5 58 5C85.062 5 107 26.938 107 54Z" stroke="black" stroke-width="2"/>
</g>
<path d="M39.2347 52.5H38.0018C37.9289 52.1454 37.8013 51.8338 37.619 51.5653C37.44 51.2969 37.2212 51.0715 36.9627 50.8892C36.7075 50.7036 36.4241 50.5644 36.1126 50.4716C35.801 50.3788 35.4762 50.3324 35.1381 50.3324C34.5217 50.3324 33.9632 50.4882 33.4627 50.7997C32.9656 51.1113 32.5695 51.5703 32.2745 52.1768C31.9828 52.7834 31.837 53.5275 31.837 54.4091C31.837 55.2907 31.9828 56.0348 32.2745 56.6413C32.5695 57.2479 32.9656 57.7069 33.4627 58.0185C33.9632 58.33 34.5217 58.4858 35.1381 58.4858C35.4762 58.4858 35.801 58.4394 36.1126 58.3466C36.4241 58.2538 36.7075 58.1162 36.9627 57.9339C37.2212 57.7483 37.44 57.5213 37.619 57.2528C37.8013 56.9811 37.9289 56.6695 38.0018 56.3182H39.2347C39.1419 56.8385 38.9729 57.3042 38.7276 57.7152C38.4824 58.1262 38.1774 58.4759 37.8129 58.7642C37.4483 59.0492 37.0389 59.2663 36.5849 59.4155C36.1341 59.5646 35.6519 59.6392 35.1381 59.6392C34.2698 59.6392 33.4975 59.4271 32.8214 59.0028C32.1452 58.5786 31.6133 57.9754 31.2255 57.1932C30.8377 56.411 30.6438 55.483 30.6438 54.4091C30.6438 53.3352 30.8377 52.4072 31.2255 51.625C31.6133 50.8428 32.1452 50.2396 32.8214 49.8153C33.4975 49.3911 34.2698 49.179 35.1381 49.179C35.6519 49.179 36.1341 49.2536 36.5849 49.4027C37.0389 49.5518 37.4483 49.7706 37.8129 50.0589C38.1774 50.344 38.4824 50.692 38.7276 51.103C38.9729 51.5107 39.1419 51.9763 39.2347 52.5ZM43.3152 59.679C42.8313 59.679 42.3921 59.5878 41.9977 59.4055C41.6033 59.2199 41.2901 58.9531 41.0581 58.6051C40.8261 58.2538 40.71 57.8295 40.71 57.3324C40.71 56.8949 40.7962 56.5402 40.9686 56.2685C41.1409 55.9934 41.3713 55.7779 41.6596 55.6222C41.948 55.4664 42.2662 55.3504 42.6142 55.2741C42.9655 55.1946 43.3185 55.1316 43.6731 55.0852C44.1371 55.0256 44.5133 54.9808 44.8017 54.951C45.0933 54.9179 45.3055 54.8632 45.438 54.7869C45.5739 54.7107 45.6419 54.5781 45.6419 54.3892V54.3494C45.6419 53.8589 45.5076 53.4777 45.2392 53.206C44.974 52.9342 44.5713 52.7983 44.0311 52.7983C43.4709 52.7983 43.0318 52.9209 42.7136 53.1662C42.3954 53.4115 42.1717 53.6733 42.0424 53.9517L40.9288 53.554C41.1277 53.09 41.3928 52.7287 41.7243 52.4702C42.059 52.2083 42.4236 52.026 42.818 51.9233C43.2157 51.8172 43.6068 51.7642 43.9913 51.7642C44.2366 51.7642 44.5183 51.794 44.8365 51.8537C45.158 51.91 45.4679 52.0277 45.7662 52.2067C46.0678 52.3857 46.318 52.6558 46.5169 53.017C46.7157 53.3783 46.8152 53.8622 46.8152 54.4688V59.5H45.6419V58.4659H45.5822C45.5027 58.6316 45.3701 58.8089 45.1845 58.9979C44.9989 59.1868 44.752 59.3475 44.4437 59.4801C44.1355 59.6127 43.7593 59.679 43.3152 59.679ZM43.4941 58.625C43.9582 58.625 44.3493 58.5339 44.6674 58.3516C44.9889 58.1693 45.2309 57.9339 45.3933 57.6456C45.559 57.3572 45.6419 57.054 45.6419 56.7358V55.6619C45.5922 55.7216 45.4828 55.7763 45.3137 55.826C45.148 55.8724 44.9558 55.9138 44.737 55.9503C44.5216 55.9834 44.3111 56.0133 44.1056 56.0398C43.9035 56.063 43.7394 56.0829 43.6135 56.0994C43.3085 56.1392 43.0235 56.2038 42.7583 56.2933C42.4965 56.3795 42.2844 56.5104 42.122 56.6861C41.9629 56.8584 41.8833 57.0937 41.8833 57.392C41.8833 57.7997 42.0342 58.108 42.3358 58.3168C42.6407 58.5223 43.0268 58.625 43.4941 58.625ZM52.2777 51.8636V52.858H48.3203V51.8636H52.2777ZM49.4737 50.0341H50.647V57.3125C50.647 57.6439 50.6951 57.8925 50.7912 58.0582C50.8906 58.2206 51.0166 58.33 51.169 58.3864C51.3248 58.4394 51.4889 58.4659 51.6612 58.4659C51.7905 58.4659 51.8965 58.4593 51.9794 58.446C52.0623 58.4295 52.1286 58.4162 52.1783 58.4062L52.4169 59.4602C52.3374 59.4901 52.2263 59.5199 52.0838 59.5497C51.9413 59.5829 51.7607 59.5994 51.5419 59.5994C51.2105 59.5994 50.8857 59.5282 50.5675 59.3857C50.2526 59.2431 49.9908 59.026 49.782 58.7344C49.5765 58.4427 49.4737 58.0748 49.4737 57.6307V50.0341ZM58.8551 56.3778V51.8636H60.0284V59.5H58.8551V58.2074H58.7756C58.5966 58.5952 58.3182 58.925 57.9403 59.1967C57.5625 59.4652 57.0852 59.5994 56.5085 59.5994C56.0312 59.5994 55.607 59.495 55.2358 59.2862C54.8646 59.0741 54.5729 58.7559 54.3608 58.3317C54.1487 57.9041 54.0426 57.3655 54.0426 56.7159V51.8636H55.2159V56.6364C55.2159 57.1932 55.3717 57.6373 55.6832 57.9688C55.9981 58.3002 56.3991 58.4659 56.8864 58.4659C57.178 58.4659 57.4747 58.3913 57.7763 58.2422C58.0812 58.093 58.3364 57.8643 58.5419 57.5561C58.7507 57.2479 58.8551 56.8551 58.8551 56.3778ZM62.1774 62.3636V51.8636H63.3109V53.0767H63.4501C63.5363 52.9441 63.6556 52.7751 63.8081 52.5696C63.9638 52.3608 64.1859 52.1752 64.4743 52.0128C64.7659 51.8471 65.1603 51.7642 65.6575 51.7642C66.3005 51.7642 66.8672 51.925 67.3578 52.2464C67.8483 52.5679 68.2311 53.0237 68.5062 53.6136C68.7813 54.2036 68.9189 54.8996 68.9189 55.7017C68.9189 56.5104 68.7813 57.2114 68.5062 57.8047C68.2311 58.3946 67.85 58.852 67.3627 59.1768C66.8755 59.4983 66.3137 59.6591 65.6774 59.6591C65.1868 59.6591 64.7941 59.5779 64.4991 59.4155C64.2041 59.2498 63.9771 59.0625 63.818 58.8537C63.6589 58.6416 63.5363 58.4659 63.4501 58.3267H63.3507V62.3636H62.1774ZM63.3308 55.6818C63.3308 56.2585 63.4153 56.7673 63.5843 57.2081C63.7534 57.6456 64.0003 57.9886 64.3251 58.2372C64.6499 58.4825 65.0476 58.6051 65.5183 58.6051C66.0088 58.6051 66.4181 58.4759 66.7463 58.2173C67.0777 57.9555 67.3263 57.6042 67.492 57.1634C67.661 56.7192 67.7456 56.2254 67.7456 55.6818C67.7456 55.1449 67.6627 54.661 67.497 54.2301C67.3346 53.7959 67.0877 53.4529 66.7562 53.201C66.4281 52.9458 66.0154 52.8182 65.5183 52.8182C65.041 52.8182 64.64 52.9392 64.3152 53.1811C63.9904 53.4197 63.7451 53.7545 63.5794 54.1854C63.4136 54.6129 63.3308 55.1117 63.3308 55.6818ZM70.7086 59.5V51.8636H71.8819V59.5H70.7086ZM71.3052 50.5909C71.0765 50.5909 70.8793 50.513 70.7136 50.3572C70.5512 50.2015 70.47 50.0142 70.47 49.7955C70.47 49.5767 70.5512 49.3894 70.7136 49.2337C70.8793 49.0779 71.0765 49 71.3052 49C71.5339 49 71.7295 49.0779 71.8919 49.2337C72.0576 49.3894 72.1404 49.5767 72.1404 49.7955C72.1404 50.0142 72.0576 50.2015 71.8919 50.3572C71.7295 50.513 71.5339 50.5909 71.3052 50.5909ZM74.0309 59.5V51.8636H75.1644V53.017H75.244C75.3832 52.6392 75.6351 52.3326 75.9996 52.0973C76.3642 51.862 76.7752 51.7443 77.2326 51.7443C77.3188 51.7443 77.4265 51.746 77.5558 51.7493C77.685 51.7526 77.7828 51.7576 77.8491 51.7642V52.9574C77.8093 52.9474 77.7182 52.9325 77.5756 52.9126C77.4364 52.8894 77.2889 52.8778 77.1332 52.8778C76.762 52.8778 76.4305 52.9557 76.1388 53.1115C75.8505 53.264 75.6218 53.4761 75.4528 53.7479C75.2871 54.0163 75.2042 54.3229 75.2042 54.6676V59.5H74.0309ZM80.228 62.3636C80.0291 62.3636 79.8518 62.3471 79.696 62.3139C79.5402 62.2841 79.4325 62.2543 79.3729 62.2244L79.6712 61.1903C79.9562 61.2633 80.2081 61.2898 80.4268 61.2699C80.6456 61.25 80.8395 61.1522 81.0085 60.9766C81.1809 60.8042 81.3383 60.5241 81.4808 60.1364L81.6996 59.5398L78.8757 51.8636H80.1484L82.2564 57.9489H82.3359L84.4439 51.8636H85.7166L82.4751 60.6136C82.3293 61.008 82.1487 61.3345 81.9332 61.593C81.7178 61.8549 81.4676 62.0488 81.1825 62.1747C80.9008 62.3007 80.5826 62.3636 80.228 62.3636Z" fill="black"/>
<path d="M39.2347 52.5V53H39.8311L39.7271 52.4128L39.2347 52.5ZM38.0018 52.5L37.512 52.6007L37.5941 53H38.0018V52.5ZM37.619 51.5653L37.2029 51.8427L37.2053 51.8462L37.619 51.5653ZM36.9627 50.8892L36.6686 51.2936L36.6746 51.2978L36.9627 50.8892ZM36.1126 50.4716L35.9698 50.9508L36.1126 50.4716ZM33.4627 50.7997L33.1985 50.3752L33.1972 50.376L33.4627 50.7997ZM32.2745 52.1768L31.8249 51.9582L31.8239 51.9602L32.2745 52.1768ZM32.2745 56.6413L31.8239 56.858L31.8249 56.86L32.2745 56.6413ZM33.4627 58.0185L33.1972 58.4421L33.1985 58.4429L33.4627 58.0185ZM36.1126 58.3466L35.9698 57.8674L36.1126 58.3466ZM36.9627 57.9339L37.2533 58.3408L37.2543 58.3401L36.9627 57.9339ZM37.619 57.2528L37.2037 56.9743L37.2029 56.9755L37.619 57.2528ZM38.0018 56.3182V55.8182H37.5949L37.5122 56.2166L38.0018 56.3182ZM39.2347 56.3182L39.727 56.406L39.8318 55.8182H39.2347V56.3182ZM38.7276 57.7152L38.2983 57.459H38.2983L38.7276 57.7152ZM37.8129 58.7642L38.1208 59.1581L38.123 59.1564L37.8129 58.7642ZM36.5849 59.4155L36.4288 58.9405L36.4278 58.9408L36.5849 59.4155ZM32.8214 59.0028L32.5556 59.4264L32.8214 59.0028ZM31.2255 57.1932L31.6735 56.9711L31.2255 57.1932ZM36.5849 49.4027L36.4278 49.8774L36.4288 49.8777L36.5849 49.4027ZM37.8129 50.0589L37.5027 50.4511L37.5049 50.4529L37.8129 50.0589ZM38.7276 51.103L38.2983 51.3592L38.2992 51.3607L38.7276 51.103ZM39.2347 52H38.0018V53H39.2347V52ZM38.4915 52.3993C38.4069 51.9876 38.2559 51.6134 38.0326 51.2845L37.2053 51.8462C37.3466 52.0543 37.4508 52.3031 37.512 52.6007L38.4915 52.3993ZM38.035 51.288C37.8225 50.9693 37.5607 50.6991 37.2508 50.4806L36.6746 51.2978C36.8817 51.4439 37.0574 51.6244 37.2029 51.8427L38.035 51.288ZM37.2568 50.4848C36.9544 50.2649 36.6195 50.1009 36.2553 49.9924L35.9698 50.9508C36.2287 51.0279 36.4606 51.1423 36.6686 51.2936L37.2568 50.4848ZM36.2553 49.9924C35.8956 49.8853 35.5226 49.8324 35.1381 49.8324V50.8324C35.4298 50.8324 35.7064 50.8723 35.9698 50.9508L36.2553 49.9924ZM35.1381 49.8324C34.4327 49.8324 33.782 50.012 33.1985 50.3752L33.727 51.2242C34.1444 50.9643 34.6106 50.8324 35.1381 50.8324V49.8324ZM33.1972 50.376C32.6094 50.7444 32.1545 51.2803 31.8249 51.9582L32.7241 52.3955C32.9844 51.8604 33.3217 51.4781 33.7282 51.2234L33.1972 50.376ZM31.8239 51.9602C31.4913 52.6519 31.337 53.4747 31.337 54.4091H32.337C32.337 53.5802 32.4744 52.9149 32.7251 52.3935L31.8239 51.9602ZM31.337 54.4091C31.337 55.3434 31.4913 56.1663 31.8239 56.858L32.7251 56.4246C32.4744 55.9033 32.337 55.238 32.337 54.4091H31.337ZM31.8249 56.86C32.1545 57.5379 32.6094 58.0738 33.1972 58.4421L33.7282 57.5948C33.3217 57.3401 32.9844 56.9578 32.7241 56.4227L31.8249 56.86ZM33.1985 58.4429C33.782 58.8062 34.4327 58.9858 35.1381 58.9858V57.9858C34.6106 57.9858 34.1444 57.8539 33.727 57.594L33.1985 58.4429ZM35.1381 58.9858C35.5226 58.9858 35.8956 58.9329 36.2553 58.8258L35.9698 57.8674C35.7064 57.9459 35.4298 57.9858 35.1381 57.9858V58.9858ZM36.2553 58.8258C36.6179 58.7178 36.9515 58.5564 37.2533 58.3408L36.6721 57.5271C36.4635 57.6761 36.2304 57.7898 35.9698 57.8674L36.2553 58.8258ZM37.2543 58.3401C37.5624 58.1189 37.8231 57.848 38.035 57.5302L37.2029 56.9755C37.0569 57.1946 36.8801 57.3778 36.6711 57.5278L37.2543 58.3401ZM38.0342 57.5314C38.2558 57.201 38.4066 56.8282 38.4913 56.4198L37.5122 56.2166C37.4511 56.5108 37.3467 56.7611 37.2037 56.9743L38.0342 57.5314ZM38.0018 56.8182H39.2347V55.8182H38.0018V56.8182ZM38.7425 56.2304C38.6592 56.6975 38.5095 57.105 38.2983 57.459L39.157 57.9714C39.4363 57.5034 39.6247 56.9796 39.727 56.406L38.7425 56.2304ZM38.2983 57.459C38.0832 57.8194 37.8182 58.1225 37.5027 58.372L38.123 59.1564C38.5367 58.8292 38.8815 58.433 39.157 57.9714L38.2983 57.459ZM37.5049 58.3703C37.1874 58.6185 36.8298 58.8088 36.4288 58.9405L36.7409 59.8905C37.2481 59.7239 37.7092 59.4799 38.1208 59.1581L37.5049 58.3703ZM36.4278 58.9408C36.0317 59.0719 35.6029 59.1392 35.1381 59.1392V60.1392C35.7009 60.1392 36.2365 60.0574 36.7419 59.8902L36.4278 58.9408ZM35.1381 59.1392C34.3552 59.1392 33.6767 58.9492 33.0871 58.5793L32.5556 59.4264C33.3184 59.905 34.1843 60.1392 35.1381 60.1392V59.1392ZM33.0871 58.5793C32.4964 58.2087 32.0242 57.6786 31.6735 56.9711L30.7775 57.4153C31.2023 58.2721 31.7941 58.9485 32.5556 59.4264L33.0871 58.5793ZM31.6735 56.9711C31.3269 56.272 31.1438 55.4233 31.1438 54.4091H30.1438C30.1438 55.5426 30.3486 56.55 30.7775 57.4153L31.6735 56.9711ZM31.1438 54.4091C31.1438 53.3949 31.3269 52.5462 31.6735 51.8471L30.7775 51.4029C30.3486 52.2682 30.1438 53.2756 30.1438 54.4091H31.1438ZM31.6735 51.8471C32.0242 51.1395 32.4964 50.6095 33.0871 50.2389L32.5556 49.3918C31.7941 49.8696 31.2023 50.5461 30.7775 51.4029L31.6735 51.8471ZM33.0871 50.2389C33.6767 49.869 34.3552 49.679 35.1381 49.679V48.679C34.1843 48.679 33.3184 48.9132 32.5556 49.3918L33.0871 50.2389ZM35.1381 49.679C35.6029 49.679 36.0317 49.7463 36.4278 49.8774L36.7419 48.928C36.2365 48.7608 35.7009 48.679 35.1381 48.679V49.679ZM36.4288 49.8777C36.8287 50.0091 37.1855 50.2003 37.5027 50.4511L38.123 49.6668C37.711 49.3409 37.2492 49.0946 36.7409 48.9277L36.4288 49.8777ZM37.5049 50.4529C37.8192 50.6986 38.0835 50.9994 38.2983 51.3592L39.157 50.8468C38.8812 50.3846 38.5357 49.9894 38.1208 49.665L37.5049 50.4529ZM38.2992 51.3607C38.5094 51.7101 38.659 52.1168 38.7424 52.5872L39.7271 52.4128C39.6248 51.8359 39.4364 51.3112 39.1561 50.8452L38.2992 51.3607ZM41.9977 59.4055L41.7848 59.858L41.7879 59.8594L41.9977 59.4055ZM41.0581 58.6051L40.6408 58.8806L40.642 58.8825L41.0581 58.6051ZM40.9686 56.2685L41.3908 56.5362L41.3923 56.5339L40.9686 56.2685ZM41.6596 55.6222L41.422 55.1822L41.6596 55.6222ZM42.6142 55.2741L42.7212 55.7626L42.7246 55.7618L42.6142 55.2741ZM43.6731 55.0852L43.6094 54.5893L43.6082 54.5895L43.6731 55.0852ZM44.8017 54.951L44.8531 55.4484L44.8581 55.4478L44.8017 54.951ZM45.438 54.7869L45.1934 54.3508L45.1888 54.3535L45.438 54.7869ZM45.2392 53.206L44.8813 53.5551L44.8835 53.5573L45.2392 53.206ZM42.7136 53.1662L43.0189 53.5622L42.7136 53.1662ZM42.0424 53.9517L41.8743 54.4226L42.3038 54.576L42.4959 54.1623L42.0424 53.9517ZM40.9288 53.554L40.4692 53.357L40.2597 53.8459L40.7606 54.0248L40.9288 53.554ZM41.7243 52.4702L42.0318 52.8644L42.0323 52.864L41.7243 52.4702ZM42.818 51.9233L42.9441 52.4072L42.9468 52.4064L42.818 51.9233ZM44.8365 51.8537L44.7443 52.3452L44.7502 52.3462L44.8365 51.8537ZM45.7662 52.2067L45.5089 52.6354L45.511 52.6367L45.7662 52.2067ZM46.5169 53.017L46.0788 53.2582L46.5169 53.017ZM46.8152 59.5V60H47.3152V59.5H46.8152ZM45.6419 59.5H45.1419V60H45.6419V59.5ZM45.6419 58.4659H46.1419V57.9659H45.6419V58.4659ZM45.5822 58.4659V57.9659H45.2676L45.1314 58.2495L45.5822 58.4659ZM45.1845 58.9979L45.5411 59.3483H45.5412L45.1845 58.9979ZM44.4437 59.4801L44.2462 59.0208L44.4437 59.4801ZM44.6674 58.3516L44.4208 57.9166L44.4189 57.9177L44.6674 58.3516ZM45.3933 57.6456L44.9598 57.3964L44.9576 57.4002L45.3933 57.6456ZM45.6419 55.6619H46.1419V54.2809L45.2578 55.3418L45.6419 55.6619ZM45.3137 55.826L45.4486 56.3075L45.4548 56.3057L45.3137 55.826ZM44.737 55.9503L44.8131 56.4445L44.8192 56.4435L44.737 55.9503ZM44.1056 56.0398L44.1627 56.5366L44.1696 56.5357L44.1056 56.0398ZM43.6135 56.0994L43.6781 56.5952L43.6787 56.5952L43.6135 56.0994ZM42.7583 56.2933L42.9147 56.7683L42.9182 56.7671L42.7583 56.2933ZM42.122 56.6861L41.7548 56.3467L41.7546 56.3469L42.122 56.6861ZM42.3358 58.3168L42.0511 58.7279L42.0563 58.7314L42.3358 58.3168ZM43.3152 59.179C42.8954 59.179 42.529 59.1003 42.2075 58.9517L41.7879 59.8594C42.2552 60.0754 42.7671 60.179 43.3152 60.179V59.179ZM42.2106 58.9531C41.8949 58.8046 41.6534 58.5967 41.4741 58.3278L40.642 58.8825C40.9267 59.3095 41.3116 59.6353 41.7848 59.8579L42.2106 58.9531ZM41.4753 58.3296C41.3064 58.0739 41.2101 57.7496 41.2101 57.3324H40.21C40.21 57.9095 40.3457 58.4337 40.6408 58.8806L41.4753 58.3296ZM41.2101 57.3324C41.2101 56.9567 41.2844 56.704 41.3908 56.5362L40.5463 56.0007C40.308 56.3765 40.21 56.8331 40.21 57.3324H41.2101ZM41.3923 56.5339C41.5183 56.3328 41.6842 56.1772 41.8973 56.0621L41.422 55.1822C41.0583 55.3787 40.7636 55.6539 40.5449 56.003L41.3923 56.5339ZM41.8973 56.0621C42.1411 55.9303 42.4148 55.8297 42.7212 55.7626L42.5072 54.7857C42.1175 54.8711 41.7548 55.0024 41.422 55.1822L41.8973 56.0621ZM42.7246 55.7618C43.061 55.6856 43.3988 55.6254 43.738 55.581L43.6082 54.5895C43.2382 54.6379 42.87 54.7036 42.5038 54.7865L42.7246 55.7618ZM43.7369 55.5811C44.1989 55.5217 44.5706 55.4776 44.8531 55.4483L44.7502 54.4536C44.4561 54.4841 44.0753 54.5294 43.6094 54.5893L43.7369 55.5811ZM44.8581 55.4478C45.1667 55.4127 45.463 55.3493 45.6873 55.2204L45.1888 54.3535C45.1479 54.377 45.02 54.423 44.7452 54.4542L44.8581 55.4478ZM45.6827 55.223C46.0123 55.0381 46.1419 54.7135 46.1419 54.3892H45.1419C45.1419 54.4251 45.1354 54.4229 45.1459 54.4023C45.1513 54.3918 45.1592 54.3804 45.1694 54.3699C45.1795 54.3596 45.1885 54.3536 45.1934 54.3509L45.6827 55.223ZM46.1419 54.3892V54.3494H45.1419V54.3892H46.1419ZM46.1419 54.3494C46.1419 53.7664 45.98 53.2445 45.5949 52.8546L44.8835 53.5573C45.0352 53.711 45.1419 53.9514 45.1419 54.3494H46.1419ZM45.5971 52.8568C45.204 52.4539 44.6484 52.2983 44.0311 52.2983V53.2983C44.4943 53.2983 44.7441 53.4145 44.8813 53.5551L45.5971 52.8568ZM44.0311 52.2983C43.4032 52.2983 42.8427 52.4354 42.4083 52.7702L43.0189 53.5622C43.2209 53.4065 43.5387 53.2983 44.0311 53.2983V52.2983ZM42.4083 52.7702C42.0455 53.0499 41.7608 53.3709 41.5889 53.7411L42.4959 54.1623C42.5826 53.9757 42.7453 53.7731 43.0189 53.5622L42.4083 52.7702ZM42.2106 53.4808L41.097 53.0831L40.7606 54.0248L41.8743 54.4226L42.2106 53.4808ZM41.3884 53.7509C41.5607 53.3489 41.779 53.0616 42.0318 52.8644L41.4167 52.0759C41.0066 52.3958 40.6947 52.831 40.4692 53.357L41.3884 53.7509ZM42.0323 52.864C42.3155 52.6425 42.6187 52.4919 42.944 52.4071L42.692 51.4394C42.2285 51.5602 41.8025 51.7742 41.4162 52.0763L42.0323 52.864ZM42.9468 52.4064C43.3055 52.3108 43.6533 52.2642 43.9913 52.2642V51.2642C43.5604 51.2642 43.126 51.3237 42.6892 51.4402L42.9468 52.4064ZM43.9913 52.2642C44.1977 52.2642 44.4475 52.2895 44.7443 52.3451L44.9286 51.3623C44.5891 51.2986 44.2755 51.2642 43.9913 51.2642V52.2642ZM44.7502 52.3462C45.0074 52.3913 45.2597 52.4859 45.5089 52.6354L46.0234 51.7779C45.676 51.5695 45.3086 51.4288 44.9228 51.3612L44.7502 52.3462ZM45.511 52.6367C45.7233 52.7627 45.9154 52.9612 46.0788 53.2582L46.9549 52.7759C46.7206 52.3504 46.4122 52.0086 46.0213 51.7767L45.511 52.6367ZM46.0788 53.2582C46.2224 53.5189 46.3152 53.9096 46.3152 54.4688H47.3152C47.3152 53.8148 47.2091 53.2378 46.9549 52.7759L46.0788 53.2582ZM46.3152 54.4688V59.5H47.3152V54.4688H46.3152ZM46.8152 59H45.6419V60H46.8152V59ZM46.1419 59.5V58.4659H45.1419V59.5H46.1419ZM45.6419 57.9659H45.5822V58.9659H45.6419V57.9659ZM45.1314 58.2495C45.0837 58.3491 44.9904 58.482 44.8278 58.6475L45.5412 59.3483C45.7498 59.1359 45.9217 58.9142 46.033 58.6823L45.1314 58.2495ZM44.8278 58.6475C44.698 58.7795 44.5101 58.9073 44.2462 59.0208L44.6413 59.9394C44.9938 59.7878 45.2997 59.594 45.5411 59.3483L44.8278 58.6475ZM44.2462 59.0208C44.017 59.1194 43.7122 59.179 43.3152 59.179V60.179C43.8064 60.179 44.2539 60.106 44.6413 59.9394L44.2462 59.0208ZM43.4941 59.125C44.0226 59.125 44.5046 59.0211 44.916 58.7854L44.4189 57.9177C44.1939 58.0466 43.8937 58.125 43.4941 58.125V59.125ZM44.9141 58.7865C45.3051 58.5648 45.6169 58.2675 45.8289 57.891L44.9576 57.4002C44.8449 57.6004 44.6727 57.7738 44.4208 57.9166L44.9141 58.7865ZM45.8268 57.8947C46.034 57.5342 46.1419 57.1454 46.1419 56.7358H45.1419C45.1419 56.9625 45.084 57.1803 44.9598 57.3965L45.8268 57.8947ZM46.1419 56.7358V55.6619H45.1419V56.7358H46.1419ZM45.2578 55.3418C45.2783 55.3172 45.2957 55.304 45.3016 55.2997C45.3078 55.2952 45.3081 55.2959 45.2989 55.3005C45.2795 55.3102 45.24 55.3265 45.1727 55.3463L45.4548 56.3057C45.5565 56.2758 45.6562 56.2399 45.7462 56.1949C45.831 56.1525 45.9389 56.0865 46.026 55.982L45.2578 55.3418ZM45.1789 55.3445C45.0346 55.3849 44.8606 55.4228 44.6548 55.4571L44.8192 56.4435C45.051 56.4049 45.2614 56.3599 45.4486 56.3075L45.1789 55.3445ZM44.661 55.4561C44.4494 55.4887 44.2429 55.5179 44.0417 55.5439L44.1696 56.5357C44.3793 56.5086 44.5938 56.4782 44.8131 56.4445L44.661 55.4561ZM44.0486 55.543C43.8451 55.5664 43.678 55.5866 43.5482 55.6037L43.6787 56.5952C43.8008 56.5791 43.9618 56.5596 44.1626 56.5365L44.0486 55.543ZM43.5488 55.6036C43.2146 55.6472 42.8974 55.7187 42.5985 55.8196L42.9182 56.7671C43.1496 56.689 43.4024 56.6312 43.6781 56.5952L43.5488 55.6036ZM42.602 55.8184C42.272 55.927 41.9831 56.0997 41.7548 56.3467L42.4891 57.0255C42.5856 56.9211 42.7211 56.832 42.9147 56.7683L42.602 55.8184ZM41.7546 56.3469C41.4889 56.6348 41.3833 57.0035 41.3833 57.392H42.3833C42.3833 57.184 42.4369 57.0821 42.4894 57.0252L41.7546 56.3469ZM41.3833 57.392C41.3833 57.9425 41.598 58.4141 42.0512 58.7279L42.6204 57.9057C42.4703 57.8018 42.3833 57.657 42.3833 57.392H41.3833ZM42.0563 58.7314C42.4636 59.0059 42.9542 59.125 43.4941 59.125V58.125C43.0995 58.125 42.8177 58.0386 42.6152 57.9021L42.0563 58.7314ZM52.2777 51.8636H52.7777V51.3636H52.2777V51.8636ZM52.2777 52.858V53.358H52.7777V52.858H52.2777ZM48.3203 52.858H47.8203V53.358H48.3203V52.858ZM48.3203 51.8636V51.3636H47.8203V51.8636H48.3203ZM49.4737 50.0341V49.5341H48.9737V50.0341H49.4737ZM50.647 50.0341H51.147V49.5341H50.647V50.0341ZM50.7912 58.0582L50.3586 58.3092L50.3648 58.3193L50.7912 58.0582ZM51.169 58.3864L50.9957 58.8555L51.0079 58.8597L51.169 58.3864ZM51.9794 58.446L52.0584 58.9397L52.068 58.9382L52.0775 58.9363L51.9794 58.446ZM52.1783 58.4062L52.6659 58.2958L52.5583 57.8203L52.0802 57.916L52.1783 58.4062ZM52.4169 59.4602L52.5925 59.9284L53.0009 59.7752L52.9046 59.3498L52.4169 59.4602ZM52.0838 59.5497L51.9813 59.0602L51.9706 59.0627L52.0838 59.5497ZM50.5675 59.3857L50.3613 59.8412L50.3631 59.842L50.5675 59.3857ZM49.782 58.7344L49.3732 59.0224L49.3754 59.0254L49.782 58.7344ZM51.7777 51.8636V52.858H52.7777V51.8636H51.7777ZM52.2777 52.358H48.3203V53.358H52.2777V52.358ZM48.8203 52.858V51.8636H47.8203V52.858H48.8203ZM48.3203 52.3636H52.2777V51.3636H48.3203V52.3636ZM49.4737 50.5341H50.647V49.5341H49.4737V50.5341ZM50.147 50.0341V57.3125H51.147V50.0341H50.147ZM50.147 57.3125C50.147 57.6759 50.1968 58.03 50.3587 58.3091L51.2237 57.8074C51.1933 57.755 51.147 57.612 51.147 57.3125H50.147ZM50.3648 58.3193C50.5123 58.5604 50.7205 58.7537 50.9957 58.8554L51.3424 57.9174C51.3126 57.9064 51.2689 57.8809 51.2176 57.7972L50.3648 58.3193ZM51.0079 58.8597C51.218 58.9312 51.4367 58.9659 51.6612 58.9659V57.9659C51.5411 57.9659 51.4316 57.9476 51.3302 57.913L51.0079 58.8597ZM51.6612 58.9659C51.8044 58.9659 51.9394 58.9588 52.0584 58.9397L51.9004 57.9523C51.8537 57.9598 51.7765 57.9659 51.6612 57.9659V58.9659ZM52.0775 58.9363C52.1603 58.9197 52.2266 58.9065 52.2763 58.8965L52.0802 57.916C52.0305 57.9259 51.9642 57.9392 51.8813 57.9557L52.0775 58.9363ZM51.6906 58.5167L51.9292 59.5706L52.9046 59.3498L52.6659 58.2958L51.6906 58.5167ZM52.2413 58.9921C52.1965 59.0089 52.1139 59.0326 51.9814 59.0603L52.1862 60.0391C52.3388 60.0072 52.4782 59.9712 52.5925 59.9284L52.2413 58.9921ZM51.9706 59.0627C51.8786 59.0841 51.7393 59.0994 51.5419 59.0994V60.0994C51.782 60.0994 52.004 60.0816 52.1971 60.0367L51.9706 59.0627ZM51.5419 59.0994C51.2845 59.0994 51.0292 59.0446 50.7719 58.9293L50.3631 59.842C50.7421 60.0118 51.1364 60.0994 51.5419 60.0994V59.0994ZM50.7737 58.9301C50.542 58.8253 50.3482 58.6663 50.1885 58.4433L49.3754 59.0254C49.6334 59.3858 49.9632 59.661 50.3613 59.8412L50.7737 58.9301ZM50.1907 58.4464C50.0577 58.2577 49.9737 57.9972 49.9737 57.6307H48.9737C48.9737 58.1524 49.0952 58.6277 49.3732 59.0224L50.1907 58.4464ZM49.9737 57.6307V50.0341H48.9737V57.6307H49.9737ZM58.8551 51.8636V51.3636H58.3551V51.8636H58.8551ZM60.0284 51.8636H60.5284V51.3636H60.0284V51.8636ZM60.0284 59.5V60H60.5284V59.5H60.0284ZM58.8551 59.5H58.3551V60H58.8551V59.5ZM58.8551 58.2074H59.3551V57.7074H58.8551V58.2074ZM58.7756 58.2074V57.7074H58.4557L58.3216 57.9979L58.7756 58.2074ZM57.9403 59.1967L58.2299 59.6043L58.2323 59.6026L57.9403 59.1967ZM55.2358 59.2862L54.9877 59.7204L54.9907 59.722L55.2358 59.2862ZM54.3608 58.3317L53.9129 58.5539L53.9136 58.5553L54.3608 58.3317ZM54.0426 51.8636V51.3636H53.5426V51.8636H54.0426ZM55.2159 51.8636H55.7159V51.3636H55.2159V51.8636ZM55.6832 57.9688L55.3189 58.3112L55.3207 58.3131L55.6832 57.9688ZM57.7763 58.2422L57.5566 57.793L57.5546 57.794L57.7763 58.2422ZM58.5419 57.5561L58.1279 57.2757L58.1259 57.2788L58.5419 57.5561ZM59.3551 56.3778V51.8636H58.3551V56.3778H59.3551ZM58.8551 52.3636H60.0284V51.3636H58.8551V52.3636ZM59.5284 51.8636V59.5H60.5284V51.8636H59.5284ZM60.0284 59H58.8551V60H60.0284V59ZM59.3551 59.5V58.2074H58.3551V59.5H59.3551ZM58.8551 57.7074H58.7756V58.7074H58.8551V57.7074ZM58.3216 57.9979C58.182 58.3004 57.9626 58.5648 57.6484 58.7908L58.2323 59.6026C58.6737 59.2851 59.0112 58.89 59.2295 58.4169L58.3216 57.9979ZM57.6507 58.7891C57.3762 58.9842 57.007 59.0994 56.5085 59.0994V60.0994C57.1634 60.0994 57.7488 59.9462 58.2299 59.6043L57.6507 58.7891ZM56.5085 59.0994C56.1066 59.0994 55.7686 59.0123 55.4809 58.8504L54.9907 59.722C55.4454 59.9778 55.9559 60.0994 56.5085 60.0994V59.0994ZM55.4839 58.8521C55.2076 58.6942 54.981 58.4541 54.808 58.1081L53.9136 58.5553C54.1648 59.0578 54.5216 59.454 54.9877 59.7203L55.4839 58.8521ZM54.8087 58.1095C54.6409 57.7713 54.5426 57.3148 54.5426 56.7159H53.5426C53.5426 57.4162 53.6564 58.037 53.9129 58.5539L54.8087 58.1095ZM54.5426 56.7159V51.8636H53.5426V56.7159H54.5426ZM54.0426 52.3636H55.2159V51.3636H54.0426V52.3636ZM54.7159 51.8636V56.6364H55.7159V51.8636H54.7159ZM54.7159 56.6364C54.7159 57.2904 54.9016 57.8672 55.3189 58.3112L56.0476 57.6263C55.8418 57.4074 55.7159 57.096 55.7159 56.6364H54.7159ZM55.3207 58.3131C55.7367 58.751 56.2722 58.9659 56.8864 58.9659V57.9659C56.5261 57.9659 56.2595 57.8494 56.0457 57.6244L55.3207 58.3131ZM56.8864 58.9659C57.2659 58.9659 57.638 58.8684 57.9979 58.6904L57.5546 57.794C57.3114 57.9143 57.0901 57.9659 56.8864 57.9659V58.9659ZM57.996 58.6913C58.3876 58.4998 58.708 58.2084 58.9579 57.8335L58.1259 57.2788C57.9649 57.5203 57.7749 57.6863 57.5566 57.793L57.996 58.6913ZM58.9559 57.8365C59.2346 57.425 59.3551 56.927 59.3551 56.3778H58.3551C58.3551 56.7832 58.2668 57.0707 58.1279 57.2757L58.9559 57.8365ZM62.1774 62.3636H61.6774V62.8636H62.1774V62.3636ZM62.1774 51.8636V51.3636H61.6774V51.8636H62.1774ZM63.3109 51.8636H63.8109V51.3636H63.3109V51.8636ZM63.3109 53.0767H62.8109V53.5767H63.3109V53.0767ZM63.4501 53.0767V53.5767H63.7215L63.8693 53.3492L63.4501 53.0767ZM63.8081 52.5696L63.4073 52.2706L63.4065 52.2717L63.8081 52.5696ZM64.4743 52.0128L64.7196 52.4484L64.7213 52.4475L64.4743 52.0128ZM67.3578 52.2464L67.6319 51.8283L67.3578 52.2464ZM68.5062 53.6136L68.9594 53.4023V53.4023L68.5062 53.6136ZM68.5062 57.8047L68.9594 58.016L68.9598 58.015L68.5062 57.8047ZM67.3627 59.1768L67.6381 59.5942L67.6401 59.5929L67.3627 59.1768ZM64.4991 59.4155L64.2542 59.8514L64.258 59.8535L64.4991 59.4155ZM63.818 58.8537L63.418 59.1537L63.4203 59.1567L63.818 58.8537ZM63.4501 58.3267L63.8752 58.0635L63.7286 57.8267H63.4501V58.3267ZM63.3507 58.3267V57.8267H62.8507V58.3267H63.3507ZM63.3507 62.3636V62.8636H63.8507V62.3636H63.3507ZM63.5843 57.2081L63.1175 57.3871L63.1179 57.3883L63.5843 57.2081ZM64.3251 58.2372L64.0212 58.6343L64.0238 58.6362L64.3251 58.2372ZM66.7463 58.2173L67.0557 58.6101L67.0562 58.6097L66.7463 58.2173ZM67.492 57.1634L67.0247 56.9855L67.024 56.9874L67.492 57.1634ZM67.497 54.2301L67.0287 54.4053L67.0303 54.4096L67.497 54.2301ZM66.7562 53.201L66.4492 53.5957L66.4537 53.5991L66.7562 53.201ZM64.3152 53.1811L64.6112 53.5841L64.6139 53.5821L64.3152 53.1811ZM63.5794 54.1854L64.0456 54.3661L64.046 54.3649L63.5794 54.1854ZM62.6774 62.3636V51.8636H61.6774V62.3636H62.6774ZM62.1774 52.3636H63.3109V51.3636H62.1774V52.3636ZM62.8109 51.8636V53.0767H63.8109V51.8636H62.8109ZM63.3109 53.5767H63.4501V52.5767H63.3109V53.5767ZM63.8693 53.3492C63.9475 53.2289 64.0601 53.0691 64.2096 52.8675L63.4065 52.2717C63.2511 52.4811 63.125 52.6594 63.0309 52.8042L63.8693 53.3492ZM64.2088 52.8686C64.3133 52.7286 64.4762 52.5855 64.7196 52.4484L64.2289 51.5771C63.8956 51.7648 63.6144 51.993 63.4073 52.2706L64.2088 52.8686ZM64.7213 52.4475C64.9099 52.3403 65.2082 52.2642 65.6575 52.2642V51.2642C65.1125 51.2642 64.622 51.3538 64.2272 51.5781L64.7213 52.4475ZM65.6575 52.2642C66.2129 52.2642 66.6824 52.4016 67.0837 52.6646L67.6319 51.8283C67.0521 51.4483 66.3881 51.2642 65.6575 51.2642V52.2642ZM67.0837 52.6646C67.4881 52.9297 67.8128 53.3097 68.0531 53.8249L68.9594 53.4023C68.6494 52.7376 68.2085 52.2062 67.6319 51.8283L67.0837 52.6646ZM68.0531 53.8249C68.291 54.3352 68.4189 54.9561 68.4189 55.7017H69.4189C69.4189 54.8432 69.2716 54.072 68.9594 53.4023L68.0531 53.8249ZM68.4189 55.7017C68.4189 56.4545 68.2908 57.0807 68.0526 57.5944L68.9598 58.015C69.2718 57.3421 69.4189 56.5663 69.4189 55.7017H68.4189ZM68.0531 57.5934C67.8122 58.1098 67.488 58.4924 67.0854 58.7608L67.6401 59.5929C68.2119 59.2117 68.65 58.6795 68.9594 58.016L68.0531 57.5934ZM67.0874 58.7595C66.6892 59.0222 66.225 59.1591 65.6774 59.1591V60.1591C66.4024 60.1591 67.0618 59.9745 67.6381 59.5942L67.0874 58.7595ZM65.6774 59.1591C65.2353 59.1591 64.9353 59.0848 64.7403 58.9775L64.258 59.8535C64.6529 60.0709 65.1384 60.1591 65.6774 60.1591V59.1591ZM64.744 58.9796C64.492 58.838 64.3234 58.692 64.2157 58.5507L63.4203 59.1567C63.6308 59.433 63.9162 59.6615 64.2542 59.8514L64.744 58.9796ZM64.218 58.5537C64.0631 58.3472 63.9503 58.1848 63.8752 58.0635L63.025 58.5899C63.1222 58.747 63.2547 58.936 63.418 59.1537L64.218 58.5537ZM63.4501 57.8267H63.3507V58.8267H63.4501V57.8267ZM62.8507 58.3267V62.3636H63.8507V58.3267H62.8507ZM63.3507 61.8636H62.1774V62.8636H63.3507V61.8636ZM62.8308 55.6818C62.8308 56.3066 62.9223 56.8781 63.1175 57.3871L64.0512 57.0291C63.9083 56.6565 63.8308 56.2105 63.8308 55.6818H62.8308ZM63.1179 57.3883C63.3152 57.8988 63.6131 58.3219 64.0212 58.6343L64.629 57.8402C64.3875 57.6553 64.1916 57.3924 64.0507 57.0279L63.1179 57.3883ZM64.0238 58.6362C64.4485 58.9569 64.9566 59.1051 65.5183 59.1051V58.1051C65.1387 58.1051 64.8513 58.008 64.6264 57.8382L64.0238 58.6362ZM65.5183 59.1051C66.1007 59.1051 66.6246 58.9497 67.0557 58.6101L66.4368 57.8246C66.2117 58.002 65.9169 58.1051 65.5183 58.1051V59.1051ZM67.0562 58.6097C67.467 58.2851 67.7661 57.8552 67.96 57.3393L67.024 56.9874C66.8865 57.3531 66.6884 57.6259 66.4363 57.825L67.0562 58.6097ZM67.9593 57.3412C68.1528 56.8327 68.2456 56.2775 68.2456 55.6818H67.2456C67.2456 56.1732 67.1693 56.6057 67.0247 56.9855L67.9593 57.3412ZM68.2456 55.6818C68.2456 55.0934 68.1547 54.5473 67.9637 54.0506L67.0303 54.4096C67.1707 54.7747 67.2456 55.1964 67.2456 55.6818H68.2456ZM67.9653 54.0549C67.7737 53.5427 67.4738 53.1183 67.0588 52.8029L66.4537 53.5991C66.7016 53.7875 66.8955 54.0492 67.0287 54.4053L67.9653 54.0549ZM67.0632 52.8063C66.631 52.4702 66.1041 52.3182 65.5183 52.3182V53.3182C65.9268 53.3182 66.2252 53.4214 66.4492 53.5957L67.0632 52.8063ZM65.5183 52.3182C64.9532 52.3182 64.4423 52.463 64.0165 52.7801L64.6139 53.5821C64.8377 53.4153 65.1288 53.3182 65.5183 53.3182V52.3182ZM64.0191 52.7782C63.6065 53.0813 63.3076 53.499 63.1127 54.0059L64.046 54.3649C64.1825 54.01 64.3742 53.7582 64.6112 53.584L64.0191 52.7782ZM63.1132 54.0047C62.9204 54.502 62.8308 55.0644 62.8308 55.6818H63.8308C63.8308 55.1591 63.9069 54.7239 64.0456 54.3661L63.1132 54.0047ZM70.7086 59.5H70.2086V60H70.7086V59.5ZM70.7086 51.8636V51.3636H70.2086V51.8636H70.7086ZM71.8819 51.8636H72.3819V51.3636H71.8819V51.8636ZM71.8819 59.5V60H72.3819V59.5H71.8819ZM70.7136 50.3572L70.3675 50.7181L70.3711 50.7216L70.7136 50.3572ZM70.7136 49.2337L70.3711 48.8693L70.3675 48.8728L70.7136 49.2337ZM71.8919 49.2337L71.5457 49.5945L71.5494 49.598L71.8919 49.2337ZM71.8919 50.3572L71.5494 49.9929L71.5458 49.9964L71.8919 50.3572ZM71.2086 59.5V51.8636H70.2086V59.5H71.2086ZM70.7086 52.3636H71.8819V51.3636H70.7086V52.3636ZM71.3819 51.8636V59.5H72.3819V51.8636H71.3819ZM71.8819 59H70.7086V60H71.8819V59ZM71.3052 50.0909C71.203 50.0909 71.1285 50.061 71.0561 49.9929L70.3711 50.7216C70.6302 50.965 70.95 51.0909 71.3052 51.0909V50.0909ZM71.0597 49.9964C70.9924 49.9319 70.97 49.8736 70.97 49.7955H69.97C69.97 50.1548 70.11 50.4711 70.3675 50.7181L71.0597 49.9964ZM70.97 49.7955C70.97 49.7173 70.9924 49.659 71.0597 49.5945L70.3675 48.8728C70.11 49.1198 69.97 49.4361 69.97 49.7955H70.97ZM71.0561 49.598C71.1285 49.5299 71.203 49.5 71.3052 49.5V48.5C70.9501 48.5 70.6302 48.6259 70.3711 48.8694L71.0561 49.598ZM71.3052 49.5C71.4072 49.5 71.4781 49.5296 71.5458 49.5945L72.238 48.8728C71.9808 48.6261 71.6606 48.5 71.3052 48.5V49.5ZM71.5494 49.598C71.6191 49.6635 71.6404 49.7207 71.6404 49.7955H72.6404C72.6404 49.4327 72.4961 49.1154 72.2343 48.8694L71.5494 49.598ZM71.6404 49.7955C71.6404 49.8702 71.6191 49.9274 71.5494 49.9929L72.2343 50.7216C72.4961 50.4755 72.6404 50.1582 72.6404 49.7955H71.6404ZM71.5458 49.9964C71.4781 50.0613 71.4072 50.0909 71.3052 50.0909V51.0909C71.6606 51.0909 71.9808 50.9648 72.238 50.7181L71.5458 49.9964ZM74.0309 59.5H73.5309V60H74.0309V59.5ZM74.0309 51.8636V51.3636H73.5309V51.8636H74.0309ZM75.1644 51.8636H75.6644V51.3636H75.1644V51.8636ZM75.1644 53.017H74.6644V53.517H75.1644V53.017ZM75.244 53.017V53.517H75.5926L75.7131 53.1899L75.244 53.017ZM75.9996 52.0973L75.7285 51.6772L75.9996 52.0973ZM77.8491 51.7642H78.3491V51.3117L77.8988 51.2667L77.8491 51.7642ZM77.8491 52.9574L77.7278 53.4425L78.3491 53.5978V52.9574H77.8491ZM77.5756 52.9126L77.4934 53.406L77.5065 53.4078L77.5756 52.9126ZM76.1389 53.1115L76.3726 53.5535L76.3744 53.5525L76.1389 53.1115ZM75.4528 53.7479L75.0282 53.4838L75.0273 53.4852L75.4528 53.7479ZM75.2042 59.5V60H75.7042V59.5H75.2042ZM74.5309 59.5V51.8636H73.5309V59.5H74.5309ZM74.0309 52.3636H75.1644V51.3636H74.0309V52.3636ZM74.6644 51.8636V53.017H75.6644V51.8636H74.6644ZM75.1644 53.517H75.244V52.517H75.1644V53.517ZM75.7131 53.1899C75.8119 52.9218 75.9898 52.6988 76.2708 52.5174L75.7285 51.6772C75.2804 51.9665 74.9544 52.3566 74.7748 52.8442L75.7131 53.1899ZM76.2708 52.5174C76.5501 52.3371 76.8659 52.2443 77.2326 52.2443V51.2443C76.6845 51.2443 76.1784 51.3868 75.7285 51.6772L76.2708 52.5174ZM77.2326 52.2443C77.313 52.2443 77.4161 52.2459 77.5429 52.2491L77.5686 51.2495C77.4369 51.2461 77.3246 51.2443 77.2326 51.2443V52.2443ZM77.5429 52.2491C77.669 52.2524 77.7519 52.257 77.7993 52.2617L77.8988 51.2667C77.8137 51.2582 77.701 51.2528 77.5686 51.2495L77.5429 52.2491ZM77.3491 51.7642V52.9574H78.3491V51.7642H77.3491ZM77.9703 52.4723C77.8995 52.4546 77.7798 52.4363 77.6447 52.4174L77.5065 53.4078C77.5758 53.4175 77.63 53.4256 77.6701 53.4322C77.7146 53.4395 77.7296 53.4429 77.7278 53.4425L77.9703 52.4723ZM77.6578 52.4194C77.4888 52.3913 77.3137 52.3778 77.1332 52.3778V53.3778C77.2642 53.3778 77.384 53.3876 77.4934 53.4058L77.6578 52.4194ZM77.1332 52.3778C76.69 52.3778 76.276 52.4714 75.9033 52.6705L76.3744 53.5525C76.5851 53.44 76.8339 53.3778 77.1332 53.3778V52.3778ZM75.9051 52.6695C75.5401 52.8625 75.2449 53.1354 75.0282 53.4838L75.8773 54.0119C75.9987 53.8168 76.1609 53.6654 76.3726 53.5535L75.9051 52.6695ZM75.0273 53.4852C74.8084 53.8399 74.7042 54.239 74.7042 54.6676H75.7042C75.7042 54.4068 75.7657 54.1928 75.8782 54.0105L75.0273 53.4852ZM74.7042 54.6676V59.5H75.7042V54.6676H74.7042ZM75.2042 59H74.0309V60H75.2042V59ZM79.696 62.3139L79.8001 61.8248L79.7901 61.8228L79.696 62.3139ZM79.3729 62.2244L78.8925 62.0859L78.7771 62.4856L79.1493 62.6716L79.3729 62.2244ZM79.6712 61.1903L79.7951 60.7059L79.3252 60.5857L79.1908 61.0518L79.6712 61.1903ZM80.4268 61.2699L80.3816 60.7719L80.4268 61.2699ZM81.0085 60.9766L80.6549 60.6229L80.6482 60.6299L81.0085 60.9766ZM81.4808 60.1364L81.9501 60.3088L81.9503 60.3085L81.4808 60.1364ZM81.6996 59.5398L82.169 59.7119L82.2322 59.5395L82.1688 59.3671L81.6996 59.5398ZM78.8757 51.8636V51.3636H78.159L78.4065 52.0363L78.8757 51.8636ZM80.1484 51.8636L80.6209 51.7L80.5044 51.3636H80.1484V51.8636ZM82.2564 57.9489L81.7839 58.1125L81.9004 58.4489H82.2564V57.9489ZM82.3359 57.9489V58.4489H82.6919L82.8084 58.1125L82.3359 57.9489ZM84.4439 51.8636V51.3636H84.0879L83.9714 51.7L84.4439 51.8636ZM85.7166 51.8636L86.1855 52.0373L86.4351 51.3636H85.7166V51.8636ZM82.4751 60.6136L82.0063 60.4399L82.0062 60.4402L82.4751 60.6136ZM81.9332 61.593L81.5491 61.2729L81.5471 61.2754L81.9332 61.593ZM81.1825 62.1747L80.9804 61.7174L80.9785 61.7183L81.1825 62.1747ZM80.228 61.8636C80.0559 61.8636 79.9144 61.8492 79.8001 61.8249L79.592 62.803C79.7892 62.8449 80.0024 62.8636 80.228 62.8636V61.8636ZM79.7901 61.8228C79.7204 61.8095 79.6686 61.7975 79.6318 61.7873C79.5913 61.7761 79.5846 61.7713 79.5965 61.7772L79.1493 62.6716C79.2769 62.7354 79.446 62.7751 79.602 62.805L79.7901 61.8228ZM79.8533 62.363L80.1516 61.3289L79.1908 61.0518L78.8925 62.0859L79.8533 62.363ZM79.5472 61.6747C79.8699 61.7573 80.181 61.7943 80.4721 61.7678L80.3816 60.7719C80.2352 60.7852 80.0425 60.7692 79.7951 60.7059L79.5472 61.6747ZM80.4721 61.7678C80.824 61.7358 81.1262 61.5754 81.3688 61.3233L80.6482 60.6299C80.5528 60.7291 80.4671 60.7642 80.3816 60.7719L80.4721 61.7678ZM81.3621 61.3301C81.6095 61.0827 81.7977 60.7237 81.9501 60.3088L81.0115 59.9639C80.8789 60.3246 80.7522 60.5257 80.655 60.623L81.3621 61.3301ZM81.9503 60.3085L82.169 59.7119L81.2301 59.3676L81.0114 59.9642L81.9503 60.3085ZM82.1688 59.3671L79.345 51.691L78.4065 52.0363L81.2303 59.7124L82.1688 59.3671ZM78.8757 52.3636H80.1484V51.3636H78.8757V52.3636ZM79.676 52.0273L81.7839 58.1125L82.7288 57.7852L80.6209 51.7L79.676 52.0273ZM82.2564 58.4489H82.3359V57.4489H82.2564V58.4489ZM82.8084 58.1125L84.9163 52.0273L83.9714 51.7L81.8635 57.7852L82.8084 58.1125ZM84.4439 52.3636H85.7166V51.3636H84.4439V52.3636ZM85.2478 51.6899L82.0063 60.4399L82.944 60.7873L86.1855 52.0373L85.2478 51.6899ZM82.0062 60.4402C81.8754 60.7941 81.7203 61.0675 81.5491 61.2729L82.3173 61.9131C82.577 61.6015 82.7833 61.222 82.9441 60.787L82.0062 60.4402ZM81.5471 61.2754C81.3768 61.4823 81.1879 61.6257 80.9804 61.7174L81.3846 62.6321C81.7472 62.4718 82.0588 62.2274 82.3193 61.9107L81.5471 61.2754ZM80.9785 61.7183C80.7698 61.8115 80.5227 61.8636 80.228 61.8636V62.8636C80.6425 62.8636 81.0318 62.7898 81.3866 62.6312L80.9785 61.7183Z" fill="#FE1C1A"/>
<path d="M45.5809 75.5C45.4715 75.1652 45.3273 74.8653 45.1483 74.6001C44.9727 74.3317 44.7622 74.103 44.517 73.9141C44.275 73.7251 43.9999 73.581 43.6917 73.4815C43.3834 73.3821 43.0454 73.3324 42.6775 73.3324C42.0742 73.3324 41.5257 73.4882 41.0319 73.7997C40.538 74.1113 40.1453 74.5703 39.8536 75.1768C39.5619 75.7834 39.4161 76.5275 39.4161 77.4091C39.4161 78.2907 39.5636 79.0348 39.8586 79.6413C40.1536 80.2479 40.5529 80.7069 41.0567 81.0185C41.5605 81.33 42.1273 81.4858 42.757 81.4858C43.3403 81.4858 43.8541 81.3615 44.2982 81.1129C44.7457 80.861 45.0937 80.5064 45.3422 80.049C45.5941 79.5883 45.7201 79.0464 45.7201 78.4233L46.0979 78.5028H43.0354V77.4091H46.9133V78.5028C46.9133 79.3414 46.7343 80.0705 46.3763 80.6903C46.0217 81.3101 45.5312 81.7907 44.9047 82.1321C44.2816 82.4702 43.5657 82.6392 42.757 82.6392C41.8555 82.6392 41.0634 82.4271 40.3806 82.0028C39.7011 81.5786 39.1708 80.9754 38.7897 80.1932C38.4118 79.411 38.2229 78.483 38.2229 77.4091C38.2229 76.6037 38.3306 75.8795 38.5461 75.2365C38.7648 74.5902 39.0731 74.04 39.4708 73.5859C39.8685 73.1319 40.3392 72.7839 40.8827 72.5419C41.4263 72.3 42.0245 72.179 42.6775 72.179C43.2144 72.179 43.7149 72.2602 44.1789 72.4226C44.6462 72.5817 45.0622 72.8087 45.4268 73.1037C45.7947 73.3954 46.1012 73.745 46.3465 74.1527C46.5918 74.5571 46.7608 75.0062 46.8536 75.5H45.5809ZM48.8659 82.5V74.8636H49.9994V76.017H50.0789C50.2181 75.6392 50.47 75.3326 50.8346 75.0973C51.1992 74.862 51.6102 74.7443 52.0676 74.7443C52.1537 74.7443 52.2615 74.746 52.3907 74.7493C52.52 74.7526 52.6178 74.7576 52.684 74.7642V75.9574C52.6443 75.9474 52.5531 75.9325 52.4106 75.9126C52.2714 75.8894 52.1239 75.8778 51.9681 75.8778C51.5969 75.8778 51.2655 75.9557 50.9738 76.1115C50.6855 76.264 50.4568 76.4761 50.2877 76.7479C50.122 77.0163 50.0392 77.3229 50.0392 77.6676V82.5H48.8659ZM56.322 82.679C55.8381 82.679 55.3989 82.5878 55.0045 82.4055C54.6101 82.2199 54.2969 81.9531 54.0649 81.6051C53.8329 81.2538 53.7169 80.8295 53.7169 80.3324C53.7169 79.8949 53.8031 79.5402 53.9754 79.2685C54.1478 78.9934 54.3781 78.7779 54.6665 78.6222C54.9548 78.4664 55.273 78.3504 55.621 78.2741C55.9723 78.1946 56.3253 78.1316 56.68 78.0852C57.144 78.0256 57.5202 77.9808 57.8085 77.951C58.1002 77.9179 58.3123 77.8632 58.4449 77.7869C58.5808 77.7107 58.6487 77.5781 58.6487 77.3892V77.3494C58.6487 76.8589 58.5145 76.4777 58.246 76.206C57.9809 75.9342 57.5782 75.7983 57.0379 75.7983C56.4778 75.7983 56.0386 75.9209 55.7204 76.1662C55.4023 76.4115 55.1785 76.6733 55.0493 76.9517L53.9356 76.554C54.1345 76.09 54.3997 75.7287 54.7311 75.4702C55.0658 75.2083 55.4304 75.026 55.8248 74.9233C56.2226 74.8172 56.6137 74.7642 56.9981 74.7642C57.2434 74.7642 57.5251 74.794 57.8433 74.8537C58.1648 74.91 58.4747 75.0277 58.773 75.2067C59.0746 75.3857 59.3248 75.6558 59.5237 76.017C59.7226 76.3783 59.822 76.8622 59.822 77.4688V82.5H58.6487V81.4659H58.589C58.5095 81.6316 58.3769 81.8089 58.1913 81.9979C58.0057 82.1868 57.7588 82.3475 57.4506 82.4801C57.1423 82.6127 56.7661 82.679 56.322 82.679ZM56.501 81.625C56.965 81.625 57.3561 81.5339 57.6743 81.3516C57.9958 81.1693 58.2377 80.9339 58.4001 80.6456C58.5658 80.3572 58.6487 80.054 58.6487 79.7358V78.6619C58.599 78.7216 58.4896 78.7763 58.3206 78.826C58.1549 78.8724 57.9626 78.9138 57.7439 78.9503C57.5284 78.9834 57.318 79.0133 57.1125 79.0398C56.9103 79.063 56.7462 79.0829 56.6203 79.0994C56.3154 79.1392 56.0303 79.2038 55.7652 79.2933C55.5033 79.3795 55.2912 79.5104 55.1288 79.6861C54.9697 79.8584 54.8902 80.0937 54.8902 80.392C54.8902 80.7997 55.041 81.108 55.3426 81.3168C55.6475 81.5223 56.0336 81.625 56.501 81.625ZM56.5407 73.8295L57.7538 71.5227H59.126L57.5748 73.8295H56.5407ZM65.2845 74.8636V75.858H61.3271V74.8636H65.2845ZM62.4806 73.0341H63.6539V80.3125C63.6539 80.6439 63.7019 80.8925 63.798 81.0582C63.8975 81.2206 64.0234 81.33 64.1759 81.3864C64.3316 81.4394 64.4957 81.4659 64.6681 81.4659C64.7973 81.4659 64.9034 81.4593 64.9862 81.446C65.0691 81.4295 65.1354 81.4162 65.1851 81.4062L65.4237 82.4602C65.3442 82.4901 65.2332 82.5199 65.0906 82.5497C64.9481 82.5829 64.7675 82.5994 64.5487 82.5994C64.2173 82.5994 63.8925 82.5282 63.5743 82.3857C63.2594 82.2431 62.9976 82.026 62.7888 81.7344C62.5833 81.4427 62.4806 81.0748 62.4806 80.6307V73.0341ZM67.0494 82.5V74.8636H68.2227V82.5H67.0494ZM67.646 73.5909C67.4173 73.5909 67.2201 73.513 67.0544 73.3572C66.892 73.2015 66.8108 73.0142 66.8108 72.7955C66.8108 72.5767 66.892 72.3894 67.0544 72.2337C67.2201 72.0779 67.4173 72 67.646 72C67.8747 72 68.0703 72.0779 68.2327 72.2337C68.3984 72.3894 68.4813 72.5767 68.4813 72.7955C68.4813 73.0142 68.3984 73.2015 68.2327 73.3572C68.0703 73.513 67.8747 73.5909 67.646 73.5909ZM75.7808 76.5739L74.7268 76.8722C74.6605 76.6965 74.5628 76.5258 74.4335 76.3601C74.3076 76.1911 74.1352 76.0518 73.9165 75.9425C73.6977 75.8331 73.4176 75.7784 73.0763 75.7784C72.6089 75.7784 72.2195 75.8861 71.9079 76.1016C71.5997 76.3137 71.4456 76.5838 71.4456 76.9119C71.4456 77.2036 71.5516 77.4339 71.7638 77.603C71.9759 77.772 72.3073 77.9129 72.7581 78.0256L73.8916 78.304C74.5744 78.4697 75.0831 78.7232 75.4179 79.0646C75.7526 79.4027 75.92 79.8385 75.92 80.3722C75.92 80.8097 75.7941 81.2008 75.5422 81.5455C75.2936 81.8902 74.9456 82.1619 74.4981 82.3608C74.0507 82.5597 73.5303 82.6591 72.9371 82.6591C72.1582 82.6591 71.5135 82.4901 71.0031 82.152C70.4927 81.8139 70.1695 81.3201 70.0336 80.6705L71.1473 80.392C71.2533 80.803 71.4539 81.1113 71.7488 81.3168C72.0471 81.5223 72.4366 81.625 72.9172 81.625C73.464 81.625 73.8982 81.509 74.2197 81.277C74.5445 81.0417 74.7069 80.7599 74.7069 80.4318C74.7069 80.1667 74.6141 79.9446 74.4285 79.7656C74.2429 79.5833 73.9579 79.4474 73.5734 79.358L72.3007 79.0597C71.6014 78.8939 71.0876 78.6371 70.7595 78.2891C70.4347 77.9377 70.2723 77.4986 70.2723 76.9716C70.2723 76.5407 70.3933 76.1596 70.6352 75.8281C70.8805 75.4967 71.2136 75.2365 71.6345 75.0476C72.0587 74.8587 72.5393 74.7642 73.0763 74.7642C73.8319 74.7642 74.4252 74.9299 74.8561 75.2614C75.2903 75.5928 75.5985 76.0303 75.7808 76.5739Z" fill="#FE1C1A"/>
<path d="M45.5809 75.5L45.1056 75.6553L45.2182 76H45.5809V75.5ZM45.1483 74.6001L44.7299 74.8739L44.7339 74.8799L45.1483 74.6001ZM44.517 73.9141L44.2092 74.3082L44.2118 74.3102L44.517 73.9141ZM43.6917 73.4815L43.8452 73.0057L43.6917 73.4815ZM39.8536 75.1768L40.3042 75.3935L39.8536 75.1768ZM39.8586 79.6413L39.4089 79.86L39.8586 79.6413ZM41.0567 81.0185L40.7937 81.4437L41.0567 81.0185ZM44.2982 81.1129L44.5424 81.5492L44.5435 81.5486L44.2982 81.1129ZM45.3422 80.049L44.9035 79.8091L44.9029 79.8102L45.3422 80.049ZM45.7201 78.4233L45.8231 77.934L45.2201 77.8071V78.4233H45.7201ZM46.0979 78.5028V79.0028L46.2009 78.0136L46.0979 78.5028ZM43.0354 78.5028H42.5354V79.0028H43.0354V78.5028ZM43.0354 77.4091V76.9091H42.5354V77.4091H43.0354ZM46.9133 77.4091H47.4133V76.9091H46.9133V77.4091ZM46.3763 80.6903L45.9434 80.4403L45.9424 80.442L46.3763 80.6903ZM44.9047 82.1321L45.1432 82.5716L45.144 82.5711L44.9047 82.1321ZM40.3806 82.0028L40.1158 82.427L40.1167 82.4275L40.3806 82.0028ZM38.7897 80.1932L38.3395 80.4107L38.3402 80.4122L38.7897 80.1932ZM38.5461 75.2365L38.0725 75.0762L38.072 75.0777L38.5461 75.2365ZM39.4708 73.5859L39.8469 73.9154L39.4708 73.5859ZM40.8827 72.5419L40.6794 72.0851L40.8827 72.5419ZM44.1789 72.4226L44.0137 72.8945L44.0178 72.8959L44.1789 72.4226ZM45.4268 73.1037L45.1122 73.4924L45.1161 73.4955L45.4268 73.1037ZM46.3465 74.1527L45.9181 74.4105L45.919 74.412L46.3465 74.1527ZM46.8536 75.5V76H47.4563L47.345 75.4077L46.8536 75.5ZM46.0562 75.3447C45.9338 74.9703 45.7702 74.6277 45.5628 74.3204L44.7339 74.8799C44.8845 75.1029 45.0092 75.3602 45.1056 75.6553L46.0562 75.3447ZM45.5667 74.3264C45.3616 74.0128 45.1133 73.7423 44.8221 73.5179L44.2118 74.3102C44.4112 74.4637 44.5838 74.6506 44.73 74.8739L45.5667 74.3264ZM44.8247 73.52C44.534 73.293 44.2061 73.1221 43.8452 73.0057L43.5382 73.9574C43.7937 74.0398 44.016 74.1573 44.2092 74.3082L44.8247 73.52ZM43.8452 73.0057C43.4811 72.8882 43.0905 72.8324 42.6775 72.8324V73.8324C43.0002 73.8324 43.2858 73.876 43.5382 73.9574L43.8452 73.0057ZM42.6775 72.8324C41.9831 72.8324 41.3415 73.0132 40.7651 73.3768L41.2987 74.2226C41.7099 73.9632 42.1654 73.8324 42.6775 73.8324V72.8324ZM40.7651 73.3768C40.1803 73.7458 39.729 74.2822 39.403 74.9602L40.3042 75.3935C40.5615 74.8584 40.8958 74.4768 41.2987 74.2226L40.7651 73.3768ZM39.403 74.9602C39.0704 75.6519 38.9161 76.4747 38.9161 77.4091H39.9161C39.9161 76.5802 40.0535 75.9149 40.3042 75.3935L39.403 74.9602ZM38.9161 77.4091C38.9161 78.3441 39.0723 79.1677 39.4089 79.86L40.3082 79.4227C40.0549 78.9019 39.9161 78.2373 39.9161 77.4091H38.9161ZM39.4089 79.86C39.7394 80.5396 40.1987 81.0757 40.7937 81.4437L41.3197 80.5932C40.9072 80.3381 40.5677 79.9562 40.3082 79.4227L39.4089 79.86ZM40.7937 81.4437C41.3816 81.8073 42.0405 81.9858 42.757 81.9858V80.9858C42.2141 80.9858 41.7394 80.8528 41.3197 80.5932L40.7937 81.4437ZM42.757 81.9858C43.4132 81.9858 44.0134 81.8453 44.5424 81.5492L44.054 80.6766C43.6948 80.8777 43.2675 80.9858 42.757 80.9858V81.9858ZM44.5435 81.5486C45.074 81.25 45.4887 80.8265 45.7816 80.2878L44.9029 79.8102C44.6986 80.1863 44.4173 80.4721 44.0529 80.6772L44.5435 81.5486ZM45.7809 80.2889C46.08 79.742 46.2201 79.1146 46.2201 78.4233H45.2201C45.2201 78.9782 45.1083 79.4346 44.9035 79.8091L45.7809 80.2889ZM45.6171 78.9126L45.9949 78.9921L46.2009 78.0136L45.8231 77.934L45.6171 78.9126ZM46.0979 78.0028H43.0354V79.0028H46.0979V78.0028ZM43.5354 78.5028V77.4091H42.5354V78.5028H43.5354ZM43.0354 77.9091H46.9133V76.9091H43.0354V77.9091ZM46.4133 77.4091V78.5028H47.4133V77.4091H46.4133ZM46.4133 78.5028C46.4133 79.2688 46.2504 79.9087 45.9434 80.4403L46.8093 80.9404C47.2182 80.2324 47.4133 79.414 47.4133 78.5028H46.4133ZM45.9424 80.442C45.6337 80.9815 45.2105 81.396 44.6655 81.6931L45.144 82.5711C45.8518 82.1854 46.4097 81.6387 46.8103 80.9387L45.9424 80.442ZM44.6663 81.6926C44.1262 81.9857 43.4943 82.1392 42.757 82.1392V83.1392C43.6372 83.1392 44.4371 82.9547 45.1432 82.5716L44.6663 81.6926ZM42.757 82.1392C41.9371 82.1392 41.2387 81.9474 40.6445 81.5781L40.1167 82.4275C40.888 82.9068 41.7739 83.1392 42.757 83.1392V82.1392ZM40.6454 81.5787C40.0524 81.2084 39.5829 80.6796 39.2392 79.9742L38.3402 80.4122C38.7588 81.2712 39.3499 81.9488 40.1158 82.427L40.6454 81.5787ZM39.2399 79.9757C38.9016 79.2754 38.7229 78.425 38.7229 77.4091H37.7229C37.7229 78.5409 37.922 79.5465 38.3395 80.4107L39.2399 79.9757ZM38.7229 77.4091C38.7229 76.6478 38.8248 75.9786 39.0202 75.3954L38.072 75.0777C37.8365 75.7804 37.7229 76.5595 37.7229 77.4091H38.7229ZM39.0197 75.3968C39.2201 74.8047 39.4978 74.314 39.8469 73.9154L39.0947 73.2565C38.6484 73.766 38.3095 74.3757 38.0725 75.0762L39.0197 75.3968ZM39.8469 73.9154C40.1977 73.515 40.6096 73.2108 41.0861 72.9987L40.6794 72.0851C40.0687 72.3569 39.5394 72.7488 39.0947 73.2565L39.8469 73.9154ZM41.0861 72.9987C41.5596 72.7879 42.0877 72.679 42.6775 72.679V71.679C41.9614 71.679 41.293 71.812 40.6794 72.0851L41.0861 72.9987ZM42.6775 72.679C43.1633 72.679 43.6075 72.7523 44.0137 72.8945L44.3441 71.9507C43.8223 71.768 43.2655 71.679 42.6775 71.679V72.679ZM44.0178 72.8959C44.4323 73.037 44.7958 73.2363 45.1123 73.4924L45.7413 72.715C45.3286 72.3811 44.8601 72.1263 44.34 71.9493L44.0178 72.8959ZM45.1161 73.4955C45.4364 73.7494 45.7033 74.0535 45.9181 74.4105L46.7749 73.8949C46.4992 73.4366 46.1529 73.0413 45.7374 72.7119L45.1161 73.4955ZM45.919 74.412C46.1312 74.7619 46.2798 75.1538 46.3622 75.5923L47.345 75.4077C47.2418 74.8585 47.0523 74.3523 46.774 73.8934L45.919 74.412ZM46.8536 75H45.5809V76H46.8536V75ZM48.8659 82.5H48.3659V83H48.8659V82.5ZM48.8659 74.8636V74.3636H48.3659V74.8636H48.8659ZM49.9994 74.8636H50.4994V74.3636H49.9994V74.8636ZM49.9994 76.017H49.4994V76.517H49.9994V76.017ZM50.0789 76.017V76.517H50.4276L50.5481 76.1899L50.0789 76.017ZM50.8346 75.0973L50.5635 74.6772L50.8346 75.0973ZM52.684 74.7642H53.184V74.3117L52.7338 74.2667L52.684 74.7642ZM52.684 75.9574L52.5628 76.4425L53.184 76.5978V75.9574H52.684ZM52.4106 75.9126L52.3284 76.406L52.3415 76.4078L52.4106 75.9126ZM50.9738 76.1115L51.2075 76.5535L51.2094 76.5525L50.9738 76.1115ZM50.2877 76.7479L49.8631 76.4838L49.8623 76.4852L50.2877 76.7479ZM50.0392 82.5V83H50.5392V82.5H50.0392ZM49.3659 82.5V74.8636H48.3659V82.5H49.3659ZM48.8659 75.3636H49.9994V74.3636H48.8659V75.3636ZM49.4994 74.8636V76.017H50.4994V74.8636H49.4994ZM49.9994 76.517H50.0789V75.517H49.9994V76.517ZM50.5481 76.1899C50.6469 75.9218 50.8247 75.6988 51.1058 75.5174L50.5635 74.6772C50.1153 74.9665 49.7894 75.3566 49.6098 75.8442L50.5481 76.1899ZM51.1058 75.5174C51.3851 75.3371 51.7009 75.2443 52.0676 75.2443V74.2443C51.5194 74.2443 51.0133 74.3868 50.5635 74.6772L51.1058 75.5174ZM52.0676 75.2443C52.1479 75.2443 52.251 75.2459 52.3779 75.2491L52.4035 74.2495C52.2719 74.2461 52.1595 74.2443 52.0676 74.2443V75.2443ZM52.3779 75.2491C52.504 75.2524 52.5869 75.257 52.6343 75.2617L52.7338 74.2667C52.6486 74.2582 52.536 74.2528 52.4035 74.2495L52.3779 75.2491ZM52.184 74.7642V75.9574H53.184V74.7642H52.184ZM52.8053 75.4723C52.7345 75.4546 52.6148 75.4363 52.4797 75.4174L52.3415 76.4078C52.4108 76.4175 52.4649 76.4256 52.5051 76.4322C52.5496 76.4395 52.5646 76.4429 52.5628 76.4425L52.8053 75.4723ZM52.4928 75.4194C52.3238 75.3913 52.1486 75.3778 51.9681 75.3778V76.3778C52.0992 76.3778 52.219 76.3876 52.3284 76.4058L52.4928 75.4194ZM51.9681 75.3778C51.525 75.3778 51.1109 75.4714 50.7383 75.6705L51.2094 76.5525C51.42 76.44 51.6689 76.3778 51.9681 76.3778V75.3778ZM50.7401 75.6695C50.3751 75.8625 50.0799 76.1354 49.8632 76.4838L50.7123 77.0119C50.8337 76.8168 50.9959 76.6654 51.2075 76.5535L50.7401 75.6695ZM49.8623 76.4852C49.6433 76.8399 49.5392 77.239 49.5392 77.6676H50.5392C50.5392 77.4068 50.6007 77.1928 50.7132 77.0105L49.8623 76.4852ZM49.5392 77.6676V82.5H50.5392V77.6676H49.5392ZM50.0392 82H48.8659V83H50.0392V82ZM55.0045 82.4055L54.7916 82.858L54.7948 82.8594L55.0045 82.4055ZM54.0649 81.6051L53.6477 81.8806L53.6489 81.8825L54.0649 81.6051ZM53.9754 79.2685L54.3977 79.5362L54.3991 79.5339L53.9754 79.2685ZM54.6665 78.6222L54.4288 78.1822L54.6665 78.6222ZM55.621 78.2741L55.728 78.7626L55.7314 78.7618L55.621 78.2741ZM56.68 78.0852L56.6162 77.5893L56.6151 77.5895L56.68 78.0852ZM57.8085 77.951L57.86 78.4484L57.865 78.4478L57.8085 77.951ZM58.4449 77.7869L58.2002 77.3508L58.1956 77.3535L58.4449 77.7869ZM58.246 76.206L57.8881 76.5551L57.8903 76.5573L58.246 76.206ZM55.7204 76.1662L56.0257 76.5622L55.7204 76.1662ZM55.0493 76.9517L54.8811 77.4226L55.3107 77.576L55.5028 77.1623L55.0493 76.9517ZM53.9356 76.554L53.4761 76.357L53.2665 76.8459L53.7675 77.0248L53.9356 76.554ZM54.7311 75.4702L55.0386 75.8644L55.0391 75.864L54.7311 75.4702ZM55.8248 74.9233L55.9509 75.4072L55.9537 75.4064L55.8248 74.9233ZM57.8433 74.8537L57.7512 75.3452L57.757 75.3462L57.8433 74.8537ZM58.773 75.2067L58.5157 75.6354L58.5178 75.6367L58.773 75.2067ZM59.5237 76.017L59.0857 76.2582L59.5237 76.017ZM59.822 82.5V83H60.322V82.5H59.822ZM58.6487 82.5H58.1487V83H58.6487V82.5ZM58.6487 81.4659H59.1487V80.9659H58.6487V81.4659ZM58.589 81.4659V80.9659H58.2744L58.1383 81.2495L58.589 81.4659ZM58.1913 81.9979L58.548 82.3483H58.548L58.1913 81.9979ZM57.4506 82.4801L57.253 82.0208L57.4506 82.4801ZM57.6743 81.3516L57.4277 80.9166L57.4257 80.9177L57.6743 81.3516ZM58.4001 80.6456L57.9666 80.3964L57.9645 80.4002L58.4001 80.6456ZM58.6487 78.6619H59.1487V77.2809L58.2646 78.3418L58.6487 78.6619ZM58.3206 78.826L58.4554 79.3075L58.4617 79.3057L58.3206 78.826ZM57.7439 78.9503L57.8199 79.4445L57.8261 79.4435L57.7439 78.9503ZM57.1125 79.0398L57.1695 79.5366L57.1765 79.5357L57.1125 79.0398ZM56.6203 79.0994L56.685 79.5952L56.6855 79.5952L56.6203 79.0994ZM55.7652 79.2933L55.9215 79.7683L55.9251 79.7671L55.7652 79.2933ZM55.1288 79.6861L54.7617 79.3467L54.7614 79.3469L55.1288 79.6861ZM55.3426 81.3168L55.058 81.7279L55.0632 81.7314L55.3426 81.3168ZM56.5407 73.8295L56.0982 73.5968L55.7129 74.3295H56.5407V73.8295ZM57.7538 71.5227V71.0227H57.4518L57.3113 71.29L57.7538 71.5227ZM59.126 71.5227L59.5409 71.8017L60.0647 71.0227H59.126V71.5227ZM57.5748 73.8295V74.3295H57.8412L57.9898 74.1085L57.5748 73.8295ZM56.322 82.179C55.9022 82.179 55.5358 82.1003 55.2143 81.9517L54.7948 82.8594C55.2621 83.0754 55.7739 83.179 56.322 83.179V82.179ZM55.2174 81.9531C54.9018 81.8046 54.6602 81.5967 54.4809 81.3278L53.6489 81.8825C53.9336 82.3095 54.3185 82.6353 54.7916 82.8579L55.2174 81.9531ZM54.4821 81.3296C54.3133 81.0739 54.2169 80.7496 54.2169 80.3324H53.2169C53.2169 80.9095 53.3525 81.4337 53.6477 81.8806L54.4821 81.3296ZM54.2169 80.3324C54.2169 79.9567 54.2913 79.704 54.3977 79.5362L53.5532 79.0007C53.3148 79.3765 53.2169 79.8331 53.2169 80.3324H54.2169ZM54.3991 79.5339C54.5251 79.3328 54.6911 79.1772 54.9041 79.0621L54.4288 78.1822C54.0652 78.3787 53.7704 78.6539 53.5517 79.003L54.3991 79.5339ZM54.9041 79.0621C55.148 78.9303 55.4216 78.8297 55.728 78.7626L55.514 77.7857C55.1243 77.8711 54.7616 78.0024 54.4288 78.1822L54.9041 79.0621ZM55.7314 78.7618C56.0678 78.6856 56.4056 78.6254 56.7448 78.581L56.6151 77.5895C56.245 77.6379 55.8769 77.7036 55.5106 77.7865L55.7314 78.7618ZM56.7437 78.5811C57.2058 78.5217 57.5774 78.4776 57.86 78.4483L57.7571 77.4536C57.4629 77.4841 57.0822 77.5294 56.6162 77.5893L56.7437 78.5811ZM57.865 78.4478C58.1736 78.4127 58.4699 78.3493 58.6941 78.2204L58.1956 77.3535C58.1547 77.377 58.0268 77.423 57.7521 77.4542L57.865 78.4478ZM58.6895 78.223C59.0191 78.0381 59.1487 77.7135 59.1487 77.3892H58.1487C58.1487 77.4251 58.1422 77.4229 58.1528 77.4023C58.1581 77.3918 58.166 77.3804 58.1763 77.3699C58.1863 77.3596 58.1954 77.3536 58.2002 77.3509L58.6895 78.223ZM59.1487 77.3892V77.3494H58.1487V77.3892H59.1487ZM59.1487 77.3494C59.1487 76.7664 58.9869 76.2445 58.6017 75.8546L57.8903 76.5573C58.0421 76.711 58.1487 76.9514 58.1487 77.3494H59.1487ZM58.6039 75.8568C58.2108 75.4539 57.6552 75.2983 57.0379 75.2983V76.2983C57.5011 76.2983 57.7509 76.4145 57.8881 76.5551L58.6039 75.8568ZM57.0379 75.2983C56.41 75.2983 55.8495 75.4354 55.4152 75.7702L56.0257 76.5622C56.2277 76.4065 56.5455 76.2983 57.0379 76.2983V75.2983ZM55.4152 75.7702C55.0524 76.0499 54.7677 76.3709 54.5958 76.7411L55.5028 77.1623C55.5894 76.9757 55.7522 76.7731 56.0257 76.5622L55.4152 75.7702ZM55.2174 76.4808L54.1038 76.0831L53.7675 77.0248L54.8811 77.4226L55.2174 76.4808ZM54.3952 76.7509C54.5675 76.3489 54.7858 76.0616 55.0386 75.8644L54.4236 75.0759C54.0135 75.3958 53.7015 75.831 53.4761 76.357L54.3952 76.7509ZM55.0391 75.864C55.3224 75.6425 55.6255 75.4919 55.9509 75.4071L55.6988 74.4394C55.2354 74.5602 54.8093 74.7742 54.423 75.0763L55.0391 75.864ZM55.9537 75.4064C56.3123 75.3108 56.6601 75.2642 56.9981 75.2642V74.2642C56.5672 74.2642 56.1328 74.3237 55.696 74.4402L55.9537 75.4064ZM56.9981 75.2642C57.2045 75.2642 57.4543 75.2895 57.7512 75.3451L57.9354 74.3623C57.5959 74.2986 57.2823 74.2642 56.9981 74.2642V75.2642ZM57.757 75.3462C58.0142 75.3913 58.2665 75.4859 58.5157 75.6354L59.0302 74.7779C58.6828 74.5695 58.3154 74.4288 57.9296 74.3612L57.757 75.3462ZM58.5178 75.6367C58.7302 75.7627 58.9222 75.9612 59.0857 76.2582L59.9617 75.7759C59.7275 75.3504 59.419 75.0086 59.0282 74.7767L58.5178 75.6367ZM59.0857 76.2582C59.2292 76.5189 59.322 76.9096 59.322 77.4688H60.322C60.322 76.8148 60.2159 76.2378 59.9617 75.7759L59.0857 76.2582ZM59.322 77.4688V82.5H60.322V77.4688H59.322ZM59.822 82H58.6487V83H59.822V82ZM59.1487 82.5V81.4659H58.1487V82.5H59.1487ZM58.6487 80.9659H58.589V81.9659H58.6487V80.9659ZM58.1383 81.2495C58.0905 81.3491 57.9972 81.482 57.8347 81.6475L58.548 82.3483C58.7566 82.1359 58.9285 81.9142 59.0398 81.6823L58.1383 81.2495ZM57.8347 81.6475C57.7049 81.7795 57.5169 81.9073 57.253 82.0208L57.6481 82.9394C58.0007 82.7878 58.3065 82.594 58.548 82.3483L57.8347 81.6475ZM57.253 82.0208C57.0238 82.1194 56.7191 82.179 56.322 82.179V83.179C56.8132 83.179 57.2608 83.106 57.6481 82.9394L57.253 82.0208ZM56.501 82.125C57.0294 82.125 57.5114 82.0211 57.9228 81.7854L57.4257 80.9177C57.2008 81.0466 56.9005 81.125 56.501 81.125V82.125ZM57.9209 81.7865C58.312 81.5648 58.6237 81.2675 58.8358 80.891L57.9645 80.4002C57.8517 80.6004 57.6796 80.7738 57.4277 80.9166L57.9209 81.7865ZM58.8336 80.8947C59.0409 80.5342 59.1487 80.1454 59.1487 79.7358H58.1487C58.1487 79.9625 58.0908 80.1803 57.9666 80.3965L58.8336 80.8947ZM59.1487 79.7358V78.6619H58.1487V79.7358H59.1487ZM58.2646 78.3418C58.2851 78.3172 58.3025 78.304 58.3084 78.2997C58.3147 78.2952 58.3149 78.2959 58.3058 78.3005C58.2863 78.3102 58.2469 78.3265 58.1795 78.3463L58.4617 79.3057C58.5633 79.2758 58.6631 79.2399 58.753 79.1949C58.8378 79.1525 58.9457 79.0865 59.0328 78.982L58.2646 78.3418ZM58.1858 78.3445C58.0415 78.3849 57.8675 78.4228 57.6617 78.4571L57.8261 79.4435C58.0578 79.4049 58.2683 79.3599 58.4554 79.3075L58.1858 78.3445ZM57.6678 78.4561C57.4562 78.4887 57.2498 78.5179 57.0485 78.5439L57.1765 79.5357C57.3862 79.5086 57.6007 79.4782 57.8199 79.4445L57.6678 78.4561ZM57.0555 78.543C56.852 78.5664 56.6849 78.5866 56.5551 78.6037L56.6855 79.5952C56.8076 79.5791 56.9686 79.5596 57.1695 79.5365L57.0555 78.543ZM56.5556 78.6036C56.2215 78.6472 55.9043 78.7187 55.6053 78.8196L55.9251 79.7671C56.1564 79.689 56.4093 79.6312 56.685 79.5952L56.5556 78.6036ZM55.6089 78.8184C55.2788 78.927 54.99 79.0997 54.7617 79.3467L55.496 80.0255C55.5925 79.9211 55.7279 79.832 55.9215 79.7683L55.6089 78.8184ZM54.7614 79.3469C54.4957 79.6348 54.3902 80.0035 54.3902 80.392H55.3902C55.3902 80.184 55.4437 80.0821 55.4962 80.0252L54.7614 79.3469ZM54.3902 80.392C54.3902 80.9425 54.6048 81.4141 55.058 81.7279L55.6272 80.9057C55.4771 80.8018 55.3902 80.657 55.3902 80.392H54.3902ZM55.0632 81.7314C55.4705 82.0059 55.961 82.125 56.501 82.125V81.125C56.1063 81.125 55.8246 81.0386 55.622 80.9021L55.0632 81.7314ZM56.9833 74.0623L58.1964 71.7554L57.3113 71.29L56.0982 73.5968L56.9833 74.0623ZM57.7538 72.0227H59.126V71.0227H57.7538V72.0227ZM58.7111 71.2437L57.1599 73.5505L57.9898 74.1085L59.5409 71.8017L58.7111 71.2437ZM57.5748 73.3295H56.5407V74.3295H57.5748V73.3295ZM65.2845 74.8636H65.7845V74.3636H65.2845V74.8636ZM65.2845 75.858V76.358H65.7845V75.858H65.2845ZM61.3271 75.858H60.8271V76.358H61.3271V75.858ZM61.3271 74.8636V74.3636H60.8271V74.8636H61.3271ZM62.4806 73.0341V72.5341H61.9806V73.0341H62.4806ZM63.6539 73.0341H64.1539V72.5341H63.6539V73.0341ZM63.798 81.0582L63.3654 81.3092L63.3716 81.3193L63.798 81.0582ZM64.1759 81.3864L64.0025 81.8555L64.0147 81.8597L64.1759 81.3864ZM64.9862 81.446L65.0652 81.9397L65.0748 81.9382L65.0843 81.9363L64.9862 81.446ZM65.1851 81.4062L65.6728 81.2958L65.5651 80.8203L65.087 80.916L65.1851 81.4062ZM65.4237 82.4602L65.5993 82.9284L66.0077 82.7752L65.9114 82.3498L65.4237 82.4602ZM65.0906 82.5497L64.9882 82.0602L64.9774 82.0627L65.0906 82.5497ZM63.5743 82.3857L63.3681 82.8412L63.3699 82.842L63.5743 82.3857ZM62.7888 81.7344L62.38 82.0224L62.3822 82.0254L62.7888 81.7344ZM64.7845 74.8636V75.858H65.7845V74.8636H64.7845ZM65.2845 75.358H61.3271V76.358H65.2845V75.358ZM61.8271 75.858V74.8636H60.8271V75.858H61.8271ZM61.3271 75.3636H65.2845V74.3636H61.3271V75.3636ZM62.4806 73.5341H63.6539V72.5341H62.4806V73.5341ZM63.1539 73.0341V80.3125H64.1539V73.0341H63.1539ZM63.1539 80.3125C63.1539 80.6759 63.2037 81.03 63.3655 81.3091L64.2305 80.8074C64.2002 80.755 64.1539 80.612 64.1539 80.3125H63.1539ZM63.3716 81.3193C63.5192 81.5604 63.7274 81.7537 64.0025 81.8554L64.3492 80.9174C64.3195 80.9064 64.2757 80.8809 64.2245 80.7972L63.3716 81.3193ZM64.0147 81.8597C64.2248 81.9312 64.4435 81.9659 64.6681 81.9659V80.9659C64.5479 80.9659 64.4385 80.9476 64.337 80.913L64.0147 81.8597ZM64.6681 81.9659C64.8113 81.9659 64.9463 81.9588 65.0652 81.9397L64.9072 80.9523C64.8605 80.9598 64.7834 80.9659 64.6681 80.9659V81.9659ZM65.0843 81.9363C65.1672 81.9197 65.2334 81.9065 65.2832 81.8965L65.087 80.916C65.0373 80.9259 64.971 80.9392 64.8882 80.9557L65.0843 81.9363ZM64.6974 81.5167L64.9361 82.5706L65.9114 82.3498L65.6728 81.2958L64.6974 81.5167ZM65.2482 81.9921C65.2034 82.0089 65.1207 82.0326 64.9882 82.0603L65.1931 83.0391C65.3456 83.0072 65.485 82.9712 65.5993 82.9284L65.2482 81.9921ZM64.9774 82.0627C64.8854 82.0841 64.7462 82.0994 64.5487 82.0994V83.0994C64.7888 83.0994 65.0108 83.0816 65.2039 83.0367L64.9774 82.0627ZM64.5487 82.0994C64.2914 82.0994 64.036 82.0446 63.7787 81.9293L63.3699 82.842C63.749 83.0118 64.1432 83.0994 64.5487 83.0994V82.0994ZM63.7805 81.9301C63.5488 81.8253 63.355 81.6663 63.1954 81.4433L62.3822 82.0254C62.6402 82.3858 62.9701 82.661 63.3681 82.8412L63.7805 81.9301ZM63.1975 81.4464C63.0646 81.2577 62.9806 80.9972 62.9806 80.6307H61.9806C61.9806 81.1524 62.102 81.6277 62.3801 82.0224L63.1975 81.4464ZM62.9806 80.6307V73.0341H61.9806V80.6307H62.9806ZM67.0494 82.5H66.5494V83H67.0494V82.5ZM67.0494 74.8636V74.3636H66.5494V74.8636H67.0494ZM68.2227 74.8636H68.7227V74.3636H68.2227V74.8636ZM68.2227 82.5V83H68.7227V82.5H68.2227ZM67.0544 73.3572L66.7083 73.7181L66.712 73.7216L67.0544 73.3572ZM67.0544 72.2337L66.7119 71.8693L66.7083 71.8728L67.0544 72.2337ZM68.2327 72.2337L67.8866 72.5945L67.8902 72.598L68.2327 72.2337ZM68.2327 73.3572L67.8902 72.9929L67.8866 72.9964L68.2327 73.3572ZM67.5494 82.5V74.8636H66.5494V82.5H67.5494ZM67.0494 75.3636H68.2227V74.3636H67.0494V75.3636ZM67.7227 74.8636V82.5H68.7227V74.8636H67.7227ZM68.2227 82H67.0494V83H68.2227V82ZM67.646 73.0909C67.5438 73.0909 67.4693 73.061 67.3969 72.9929L66.712 73.7216C66.971 73.965 67.2909 74.0909 67.646 74.0909V73.0909ZM67.4005 72.9964C67.3333 72.9319 67.3108 72.8736 67.3108 72.7955H66.3108C66.3108 73.1548 66.4508 73.4711 66.7083 73.7181L67.4005 72.9964ZM67.3108 72.7955C67.3108 72.7173 67.3333 72.659 67.4005 72.5945L66.7083 71.8728C66.4508 72.1198 66.3108 72.4361 66.3108 72.7955H67.3108ZM67.3969 72.598C67.4693 72.5299 67.5438 72.5 67.646 72.5V71.5C67.2909 71.5 66.971 71.6259 66.712 71.8694L67.3969 72.598ZM67.646 72.5C67.7481 72.5 67.8189 72.5296 67.8866 72.5945L68.5788 71.8728C68.3216 71.6261 68.0014 71.5 67.646 71.5V72.5ZM67.8902 72.598C67.9599 72.6635 67.9813 72.7207 67.9813 72.7955H68.9813C68.9813 72.4327 68.8369 72.1154 68.5751 71.8694L67.8902 72.598ZM67.9813 72.7955C67.9813 72.8702 67.9599 72.9274 67.8902 72.9929L68.5751 73.7216C68.8369 73.4755 68.9813 73.1582 68.9813 72.7955H67.9813ZM67.8866 72.9964C67.8189 73.0613 67.7481 73.0909 67.646 73.0909V74.0909C68.0014 74.0909 68.3216 73.9648 68.5788 73.7181L67.8866 72.9964ZM75.7808 76.5739L75.917 77.055L76.4216 76.9121L76.2549 76.4149L75.7808 76.5739ZM74.7268 76.8722L74.259 77.0487L74.4212 77.4783L74.863 77.3533L74.7268 76.8722ZM74.4335 76.3601L74.0325 76.6589L74.0393 76.6676L74.4335 76.3601ZM73.9165 75.9425L74.1401 75.4953L73.9165 75.9425ZM71.9079 76.1016L72.1914 76.5135L72.1923 76.5128L71.9079 76.1016ZM71.7638 77.603L71.4522 77.994L71.7638 77.603ZM72.7581 78.0256L72.6368 78.5106L72.6388 78.5111L72.7581 78.0256ZM73.8916 78.304L73.7723 78.7895L73.7737 78.7899L73.8916 78.304ZM75.4179 79.0646L75.0609 79.4147L75.0626 79.4164L75.4179 79.0646ZM75.5422 81.5455L75.1385 81.2504L75.1366 81.253L75.5422 81.5455ZM71.0031 82.152L71.2792 81.7351L71.0031 82.152ZM70.0336 80.6705L69.9124 80.1854L69.4458 80.302L69.5442 80.7728L70.0336 80.6705ZM71.1473 80.392L71.6314 80.2671L71.5074 79.7866L71.026 79.907L71.1473 80.392ZM71.7488 81.3168L71.463 81.727L71.4652 81.7285L71.7488 81.3168ZM74.2197 81.277L74.5123 81.6824L74.5131 81.6819L74.2197 81.277ZM74.4285 79.7656L74.0782 80.1224L74.0815 80.1255L74.4285 79.7656ZM73.5734 79.358L73.4593 79.8448L73.4601 79.8449L73.5734 79.358ZM72.3007 79.0597L72.1854 79.5462L72.1866 79.5465L72.3007 79.0597ZM70.7595 78.2891L70.3923 78.6285L70.3957 78.6321L70.7595 78.2891ZM70.6352 75.8281L70.2333 75.5307L70.2314 75.5333L70.6352 75.8281ZM71.6345 75.0476L71.4311 74.5908L71.4298 74.5914L71.6345 75.0476ZM74.8561 75.2614L74.5512 75.6577L74.5527 75.6588L74.8561 75.2614ZM75.6446 76.0928L74.5907 76.3911L74.863 77.3533L75.917 77.055L75.6446 76.0928ZM75.1946 76.6956C75.1086 76.4676 74.9843 76.2533 74.8278 76.0526L74.0393 76.6676C74.1412 76.7983 74.2125 76.9254 74.259 77.0487L75.1946 76.6956ZM74.8344 76.0613C74.6549 75.8203 74.4175 75.634 74.1401 75.4953L73.6929 76.3897C73.8529 76.4697 73.9603 76.5618 74.0326 76.6588L74.8344 76.0613ZM74.1401 75.4953C73.83 75.3402 73.4664 75.2784 73.0763 75.2784V76.2784C73.3689 76.2784 73.5654 76.326 73.6929 76.3897L74.1401 75.4953ZM73.0763 75.2784C72.5313 75.2784 72.0365 75.4048 71.6236 75.6903L72.1923 76.5128C72.4025 76.3675 72.6866 76.2784 73.0763 76.2784V75.2784ZM71.6245 75.6897C71.2028 75.9799 70.9456 76.3941 70.9456 76.9119H71.9456C71.9456 76.7735 71.9966 76.6475 72.1914 76.5135L71.6245 75.6897ZM70.9456 76.9119C70.9456 77.3427 71.111 77.7222 71.4522 77.994L72.0754 77.212C71.9922 77.1457 71.9456 77.0645 71.9456 76.9119H70.9456ZM71.4522 77.994C71.7467 78.2287 72.1593 78.3913 72.6368 78.5106L72.8793 77.5405C72.4554 77.4345 72.2051 77.3153 72.0754 77.212L71.4522 77.994ZM72.6388 78.5111L73.7723 78.7895L74.0109 77.8184L72.8773 77.54L72.6388 78.5111ZM73.7737 78.7899C74.4057 78.9433 74.8154 79.1644 75.0609 79.4147L75.7749 78.7146C75.3508 78.2821 74.7431 77.9961 74.0095 77.8181L73.7737 78.7899ZM75.0626 79.4164C75.293 79.6492 75.42 79.9528 75.42 80.3722H76.42C76.42 79.7243 76.2122 79.1562 75.7732 78.7128L75.0626 79.4164ZM75.42 80.3722C75.42 80.7064 75.3261 80.9936 75.1385 81.2504L75.9459 81.8405C76.262 81.4079 76.42 80.9129 76.42 80.3722H75.42ZM75.1366 81.253C74.9472 81.5156 74.6741 81.7354 74.2951 81.9039L74.7012 82.8177C75.217 82.5884 75.6399 82.2647 75.9477 81.8379L75.1366 81.253ZM74.2951 81.9039C73.9236 82.069 73.4749 82.1591 72.9371 82.1591V83.1591C73.5858 83.1591 74.1778 83.0503 74.7012 82.8177L74.2951 81.9039ZM72.9371 82.1591C72.2298 82.1591 71.6881 82.0059 71.2792 81.7351L70.727 82.5688C71.339 82.9742 72.0866 83.1591 72.9371 83.1591V82.1591ZM71.2792 81.7351C70.8883 81.4762 70.6345 81.1008 70.5231 80.5681L69.5442 80.7728C69.7046 81.5393 70.0971 82.1516 70.727 82.5688L71.2792 81.7351ZM70.1549 81.1555L71.2686 80.8771L71.026 79.907L69.9124 80.1854L70.1549 81.1555ZM70.6631 80.517C70.7934 81.0217 71.0528 81.4412 71.463 81.727L72.0346 80.9065C71.8549 80.7813 71.7133 80.5843 71.6314 80.2671L70.6631 80.517ZM71.4652 81.7285C71.8703 82.0076 72.3679 82.125 72.9172 82.125V81.125C72.5053 81.125 72.224 81.037 72.0325 80.905L71.4652 81.7285ZM72.9172 82.125C73.5302 82.125 74.0787 81.9953 74.5123 81.6824L73.9271 80.8715C73.7177 81.0227 73.3979 81.125 72.9172 81.125V82.125ZM74.5131 81.6819C74.9352 81.376 75.2069 80.9565 75.2069 80.4318H74.2069C74.2069 80.5634 74.1538 80.7073 73.9264 80.8721L74.5131 81.6819ZM75.2069 80.4318C75.2069 80.0352 75.062 79.6819 74.7756 79.4057L74.0815 80.1255C74.1663 80.2073 74.2069 80.2981 74.2069 80.4318H75.2069ZM74.7789 79.4089C74.5022 79.1371 74.1178 78.9713 73.6868 78.871L73.4601 79.8449C73.7979 79.9236 73.9837 80.0295 74.0782 80.1223L74.7789 79.4089ZM73.6875 78.8711L72.4148 78.5729L72.1866 79.5465L73.4593 79.8448L73.6875 78.8711ZM72.416 78.5731C71.767 78.4193 71.3586 78.1956 71.1233 77.9461L70.3957 78.6321C70.8167 79.0785 71.4357 79.3685 72.1854 79.5462L72.416 78.5731ZM71.1266 77.9496C70.8962 77.7004 70.7723 77.3866 70.7723 76.9716H69.7723C69.7723 77.6106 69.9732 78.1751 70.3924 78.6285L71.1266 77.9496ZM70.7723 76.9716C70.7723 76.641 70.8628 76.3643 71.0391 76.1229L70.2314 75.5333C69.9237 75.9548 69.7723 76.4404 69.7723 76.9716H70.7723ZM71.0371 76.1255C71.2255 75.871 71.4871 75.6618 71.8392 75.5037L71.4298 74.5914C70.9401 74.8112 70.5354 75.1224 70.2333 75.5307L71.0371 76.1255ZM71.8379 75.5043C72.1889 75.348 72.5985 75.2642 73.0763 75.2642V74.2642C72.4801 74.2642 71.9286 74.3693 71.4311 74.5908L71.8379 75.5043ZM73.0763 75.2642C73.7639 75.2642 74.2362 75.4153 74.5512 75.6577L75.1609 74.8651C74.6143 74.4445 73.9 74.2642 73.0763 74.2642V75.2642ZM74.5527 75.6588C74.9034 75.9265 75.1546 76.2791 75.3068 76.7328L76.2549 76.4149C76.0425 75.7815 75.6772 75.2591 75.1595 74.8639L74.5527 75.6588Z" fill="#FE1C1A"/>
<path d="M39.2232 35V24.8182H42.7828C43.4921 24.8182 44.0771 24.9408 44.5378 25.1861C44.9985 25.428 45.3416 25.7545 45.5669 26.1655C45.7923 26.5732 45.905 27.0256 45.905 27.5227C45.905 27.9602 45.8271 28.3215 45.6713 28.6065C45.5189 28.8916 45.3167 29.117 45.0648 29.2827C44.8162 29.4484 44.5461 29.571 44.2544 29.6506V29.75C44.566 29.7699 44.8792 29.8793 45.1941 30.0781C45.5089 30.277 45.7724 30.562 45.9846 30.9332C46.1967 31.3045 46.3027 31.7585 46.3027 32.2955C46.3027 32.8059 46.1867 33.2649 45.9547 33.6726C45.7227 34.0803 45.3565 34.4034 44.856 34.642C44.3555 34.8807 43.7042 35 42.9022 35H39.2232ZM40.4561 33.9062H42.9022C43.7076 33.9062 44.2793 33.7505 44.6174 33.4389C44.9587 33.1241 45.1294 32.7429 45.1294 32.2955C45.1294 31.9508 45.0416 31.6326 44.8659 31.3409C44.6903 31.0459 44.44 30.8106 44.1152 30.6349C43.7904 30.456 43.406 30.3665 42.9618 30.3665H40.4561V33.9062ZM40.4561 29.2926H42.7431C43.1143 29.2926 43.449 29.2197 43.7473 29.0739C44.0489 28.928 44.2876 28.7225 44.4632 28.4574C44.6422 28.1922 44.7317 27.8807 44.7317 27.5227C44.7317 27.0753 44.5759 26.6958 44.2644 26.3842C43.9528 26.0694 43.459 25.9119 42.7828 25.9119H40.4561V29.2926ZM51.2718 35.1591C50.5824 35.1591 49.9776 34.995 49.4572 34.6669C48.9402 34.3388 48.5358 33.8797 48.2441 33.2898C47.9558 32.6998 47.8116 32.0104 47.8116 31.2216C47.8116 30.4261 47.9558 29.7318 48.2441 29.1385C48.5358 28.5452 48.9402 28.0845 49.4572 27.7564C49.9776 27.4283 50.5824 27.2642 51.2718 27.2642C51.9612 27.2642 52.5645 27.4283 53.0815 27.7564C53.6019 28.0845 54.0062 28.5452 54.2946 29.1385C54.5862 29.7318 54.7321 30.4261 54.7321 31.2216C54.7321 32.0104 54.5862 32.6998 54.2946 33.2898C54.0062 33.8797 53.6019 34.3388 53.0815 34.6669C52.5645 34.995 51.9612 35.1591 51.2718 35.1591ZM51.2718 34.1051C51.7955 34.1051 52.2264 33.9709 52.5645 33.7024C52.9025 33.4339 53.1528 33.081 53.3152 32.6435C53.4776 32.206 53.5588 31.732 53.5588 31.2216C53.5588 30.7112 53.4776 30.2356 53.3152 29.7947C53.1528 29.3539 52.9025 28.9976 52.5645 28.7259C52.2264 28.4541 51.7955 28.3182 51.2718 28.3182C50.7482 28.3182 50.3173 28.4541 49.9792 28.7259C49.6412 28.9976 49.3909 29.3539 49.2285 29.7947C49.0661 30.2356 48.9849 30.7112 48.9849 31.2216C48.9849 31.732 49.0661 32.206 49.2285 32.6435C49.3909 33.081 49.6412 33.4339 49.9792 33.7024C50.3173 33.9709 50.7482 34.1051 51.2718 34.1051ZM56.5231 35V27.3636H57.6566V28.517H57.7362C57.8754 28.1392 58.1272 27.8326 58.4918 27.5973C58.8564 27.362 59.2674 27.2443 59.7248 27.2443C59.811 27.2443 59.9187 27.246 60.0479 27.2493C60.1772 27.2526 60.275 27.2576 60.3413 27.2642V28.4574C60.3015 28.4474 60.2103 28.4325 60.0678 28.4126C59.9286 28.3894 59.7811 28.3778 59.6254 28.3778C59.2541 28.3778 58.9227 28.4557 58.631 28.6115C58.3427 28.764 58.114 28.9761 57.945 29.2479C57.7792 29.5163 57.6964 29.8229 57.6964 30.1676V35H56.5231ZM64.3832 35.1591C63.7468 35.1591 63.185 34.9983 62.6978 34.6768C62.2106 34.352 61.8294 33.8946 61.5543 33.3047C61.2792 32.7114 61.1417 32.0104 61.1417 31.2017C61.1417 30.3996 61.2792 29.7036 61.5543 29.1136C61.8294 28.5237 62.2122 28.0679 62.7028 27.7464C63.1933 27.425 63.7601 27.2642 64.4031 27.2642C64.9002 27.2642 65.293 27.3471 65.5813 27.5128C65.873 27.6752 66.0951 27.8608 66.2475 28.0696C66.4033 28.2751 66.5243 28.4441 66.6104 28.5767H66.7099V24.8182H67.8832V35H66.7496V33.8267H66.6104C66.5243 33.9659 66.4016 34.1416 66.2425 34.3537C66.0835 34.5625 65.8564 34.7498 65.5614 34.9155C65.2665 35.0779 64.8737 35.1591 64.3832 35.1591ZM64.5423 34.1051C65.0129 34.1051 65.4106 33.9825 65.7354 33.7372C66.0603 33.4886 66.3072 33.1456 66.4762 32.7081C66.6452 32.2673 66.7298 31.7585 66.7298 31.1818C66.7298 30.6117 66.6469 30.1129 66.4812 29.6854C66.3155 29.2545 66.0702 28.9197 65.7454 28.6811C65.4206 28.4392 65.0195 28.3182 64.5423 28.3182C64.0451 28.3182 63.6308 28.4458 63.2994 28.701C62.9712 28.9529 62.7243 29.2959 62.5586 29.7301C62.3962 30.161 62.315 30.6449 62.315 31.1818C62.315 31.7254 62.3978 32.2192 62.5636 32.6634C62.7326 33.1042 62.9812 33.4555 63.3093 33.7173C63.6407 33.9759 64.0517 34.1051 64.5423 34.1051ZM72.4421 35.179C71.9582 35.179 71.5191 35.0878 71.1246 34.9055C70.7302 34.7199 70.417 34.4531 70.185 34.1051C69.953 33.7538 69.837 33.3295 69.837 32.8324C69.837 32.3949 69.9232 32.0402 70.0955 31.7685C70.2679 31.4934 70.4982 31.2779 70.7866 31.1222C71.0749 30.9664 71.3931 30.8504 71.7411 30.7741C72.0924 30.6946 72.4454 30.6316 72.8001 30.5852C73.2641 30.5256 73.6403 30.4808 73.9286 30.451C74.2203 30.4179 74.4324 30.3632 74.565 30.2869C74.7009 30.2107 74.7688 30.0781 74.7688 29.8892V29.8494C74.7688 29.3589 74.6346 28.9777 74.3661 28.706C74.101 28.4342 73.6983 28.2983 73.158 28.2983C72.5979 28.2983 72.1587 28.4209 71.8406 28.6662C71.5224 28.9115 71.2987 29.1733 71.1694 29.4517L70.0558 29.054C70.2546 28.59 70.5198 28.2287 70.8512 27.9702C71.186 27.7083 71.5505 27.526 71.945 27.4233C72.3427 27.3172 72.7338 27.2642 73.1183 27.2642C73.3635 27.2642 73.6452 27.294 73.9634 27.3537C74.2849 27.41 74.5948 27.5277 74.8931 27.7067C75.1947 27.8857 75.445 28.1558 75.6438 28.517C75.8427 28.8783 75.9421 29.3622 75.9421 29.9688V35H74.7688V33.9659H74.7092C74.6296 34.1316 74.497 34.3089 74.3114 34.4979C74.1258 34.6868 73.8789 34.8475 73.5707 34.9801C73.2624 35.1127 72.8862 35.179 72.4421 35.179ZM72.6211 34.125C73.0851 34.125 73.4762 34.0339 73.7944 33.8516C74.1159 33.6693 74.3578 33.4339 74.5202 33.1456C74.686 32.8572 74.7688 32.554 74.7688 32.2358V31.1619C74.7191 31.2216 74.6097 31.2763 74.4407 31.326C74.275 31.3724 74.0827 31.4138 73.864 31.4503C73.6486 31.4834 73.4381 31.5133 73.2326 31.5398C73.0304 31.563 72.8664 31.5829 72.7404 31.5994C72.4355 31.6392 72.1504 31.7038 71.8853 31.7933C71.6235 31.8795 71.4113 32.0104 71.2489 32.1861C71.0898 32.3584 71.0103 32.5937 71.0103 32.892C71.0103 33.2997 71.1611 33.608 71.4627 33.8168C71.7676 34.0223 72.1538 34.125 72.6211 34.125Z" fill="#FE1C1A"/>
<path d="M39.2232 35H38.7232V35.5H39.2232V35ZM39.2232 24.8182V24.3182H38.7232V24.8182H39.2232ZM44.5378 25.1861L44.3029 25.6274L44.3053 25.6287L44.5378 25.1861ZM45.5669 26.1655L45.1285 26.4059L45.1294 26.4074L45.5669 26.1655ZM45.6713 28.6065L45.2326 28.3667L45.2304 28.3707L45.6713 28.6065ZM45.0648 29.2827L44.79 28.865L44.7875 28.8666L45.0648 29.2827ZM44.2544 29.6506L44.1229 29.1682L43.7544 29.2687V29.6506H44.2544ZM44.2544 29.75H43.7544V30.2191L44.2226 30.249L44.2544 29.75ZM45.1941 30.0781L44.9271 30.5009L45.1941 30.0781ZM45.9547 33.6726L46.3893 33.9199L45.9547 33.6726ZM44.856 34.642L44.6408 34.1907L44.856 34.642ZM40.4561 33.9062H39.9561V34.4062H40.4561V33.9062ZM44.6174 33.4389L44.9562 33.8066L44.9564 33.8065L44.6174 33.4389ZM44.8659 31.3409L44.4363 31.5967L44.4376 31.5989L44.8659 31.3409ZM44.1152 30.6349L43.8739 31.0729L43.8774 31.0747L44.1152 30.6349ZM40.4561 30.3665V29.8665H39.9561V30.3665H40.4561ZM40.4561 29.2926H39.9561V29.7926H40.4561V29.2926ZM43.7473 29.0739L43.5297 28.6237L43.5277 28.6247L43.7473 29.0739ZM44.4632 28.4574L44.0488 28.1776L44.0464 28.1812L44.4632 28.4574ZM44.2644 26.3842L43.909 26.7359L43.9108 26.7378L44.2644 26.3842ZM40.4561 25.9119V25.4119H39.9561V25.9119H40.4561ZM39.7232 35V24.8182H38.7232V35H39.7232ZM39.2232 25.3182H42.7828V24.3182H39.2232V25.3182ZM42.7828 25.3182C43.4382 25.3182 43.9358 25.432 44.3029 25.6274L44.7728 24.7447C44.2185 24.4496 43.546 24.3182 42.7828 24.3182V25.3182ZM44.3053 25.6287C44.689 25.8302 44.9556 26.0905 45.1285 26.4059L46.0053 25.9251C45.7276 25.4185 45.3081 25.0258 44.7703 24.7434L44.3053 25.6287ZM45.1294 26.4074C45.311 26.736 45.405 27.1043 45.405 27.5227H46.405C46.405 26.9468 46.2736 26.4103 46.0045 25.9236L45.1294 26.4074ZM45.405 27.5227C45.405 27.9043 45.3367 28.1763 45.2326 28.3668L46.1101 28.8463C46.3176 28.4667 46.405 28.0161 46.405 27.5227H45.405ZM45.2304 28.3707C45.1144 28.5877 44.9672 28.7484 44.79 28.865L45.3396 29.7004C45.6662 29.4855 45.9234 29.1955 46.1122 28.8424L45.2304 28.3707ZM44.7875 28.8666C44.5841 29.0022 44.3633 29.1026 44.1229 29.1682L44.386 30.1329C44.7289 30.0394 45.0483 29.8946 45.3422 29.6987L44.7875 28.8666ZM43.7544 29.6506V29.75H44.7544V29.6506H43.7544ZM44.2226 30.249C44.4359 30.2626 44.6693 30.3381 44.9271 30.5009L45.4611 29.6554C45.0891 29.4204 44.6961 29.2772 44.2863 29.251L44.2226 30.249ZM44.9271 30.5009C45.1632 30.65 45.3728 30.8705 45.5504 31.1813L46.4187 30.6852C46.172 30.2535 45.8547 29.904 45.4611 29.6554L44.9271 30.5009ZM45.5504 31.1813C45.7097 31.46 45.8027 31.8236 45.8027 32.2955H46.8027C46.8027 31.6935 46.6837 31.1489 46.4187 30.6852L45.5504 31.1813ZM45.8027 32.2955C45.8027 32.727 45.7056 33.0995 45.5202 33.4253L46.3893 33.9199C46.6679 33.4303 46.8027 32.8847 46.8027 32.2955H45.8027ZM45.5202 33.4253C45.3474 33.7289 45.0662 33.9879 44.6408 34.1907L45.0712 35.0934C45.6467 34.8189 46.098 34.4316 46.3893 33.9199L45.5202 33.4253ZM44.6408 34.1907C44.2307 34.3863 43.6606 34.5 42.9022 34.5V35.5C43.7479 35.5 44.4804 35.3751 45.0712 35.0934L44.6408 34.1907ZM42.9022 34.5H39.2232V35.5H42.9022V34.5ZM40.4561 34.4062H42.9022V33.4062H40.4561V34.4062ZM42.9022 34.4062C43.7468 34.4062 44.4776 34.2477 44.9562 33.8066L44.2785 33.0712C44.081 33.2533 43.6683 33.4062 42.9022 33.4062V34.4062ZM44.9564 33.8065C45.396 33.401 45.6294 32.8884 45.6294 32.2955H44.6294C44.6294 32.5974 44.5215 32.8471 44.2784 33.0714L44.9564 33.8065ZM45.6294 32.2955C45.6294 31.861 45.5174 31.4535 45.2943 31.0829L44.4376 31.5989C44.5658 31.8117 44.6294 32.0405 44.6294 32.2955H45.6294ZM45.2955 31.0851C45.0702 30.7067 44.751 30.4103 44.3531 30.1951L43.8774 31.0747C44.1291 31.2109 44.3103 31.3851 44.4363 31.5967L45.2955 31.0851ZM44.3565 30.197C43.9445 29.97 43.4737 29.8665 42.9618 29.8665V30.8665C43.3382 30.8665 43.6363 30.9419 43.8739 31.0729L44.3565 30.197ZM42.9618 29.8665H40.4561V30.8665H42.9618V29.8665ZM39.9561 30.3665V33.9062H40.9561V30.3665H39.9561ZM40.4561 29.7926H42.7431V28.7926H40.4561V29.7926ZM42.7431 29.7926C43.1813 29.7926 43.5926 29.7061 43.9669 29.5231L43.5277 28.6247C43.3055 28.7333 43.0472 28.7926 42.7431 28.7926V29.7926ZM43.965 29.524C44.3429 29.3413 44.6522 29.0776 44.8801 28.7335L44.0464 28.1812C43.923 28.3675 43.755 28.5148 43.5297 28.6237L43.965 29.524ZM44.8777 28.7371C45.1189 28.3797 45.2317 27.9681 45.2317 27.5227H44.2317C44.2317 27.7933 44.1655 28.0048 44.0488 28.1776L44.8777 28.7371ZM45.2317 27.5227C45.2317 26.945 45.0249 26.4376 44.6179 26.0307L43.9108 26.7378C44.127 26.9539 44.2317 27.2056 44.2317 27.5227H45.2317ZM44.6198 26.0326C44.1749 25.5829 43.5234 25.4119 42.7828 25.4119V26.4119C43.3945 26.4119 43.7308 26.5558 43.909 26.7359L44.6198 26.0326ZM42.7828 25.4119H40.4561V26.4119H42.7828V25.4119ZM39.9561 25.9119V29.2926H40.9561V25.9119H39.9561ZM49.4572 34.6669L49.1893 35.0891L49.1905 35.0898L49.4572 34.6669ZM48.2441 33.2898L47.7949 33.5093L47.7959 33.5114L48.2441 33.2898ZM48.2441 29.1385L47.7954 28.9179L47.7944 28.9199L48.2441 29.1385ZM49.4572 27.7564L49.1905 27.3335L49.1893 27.3342L49.4572 27.7564ZM53.0815 27.7564L52.8136 28.1786L52.8148 28.1793L53.0815 27.7564ZM54.2946 29.1385L53.8449 29.3571L53.8459 29.3591L54.2946 29.1385ZM54.2946 33.2898L53.8463 33.0682L53.8454 33.0702L54.2946 33.2898ZM53.0815 34.6669L52.8148 34.244L52.8136 34.2447L53.0815 34.6669ZM52.5645 33.7024L52.2535 33.3109L52.5645 33.7024ZM53.3152 32.6435L53.7839 32.8175L53.3152 32.6435ZM53.3152 29.7947L53.7843 29.6219L53.3152 29.7947ZM52.5645 28.7259L52.8777 28.3362L52.5645 28.7259ZM49.9792 28.7259L49.6659 28.3362L49.9792 28.7259ZM49.2285 29.7947L48.7593 29.6219L49.2285 29.7947ZM49.2285 32.6435L48.7598 32.8175L49.2285 32.6435ZM49.9792 33.7024L50.2902 33.3109L49.9792 33.7024ZM51.2718 34.6591C50.6651 34.6591 50.155 34.5158 49.7239 34.244L49.1905 35.0898C49.8001 35.4742 50.4998 35.6591 51.2718 35.6591V34.6591ZM49.7251 34.2447C49.2912 33.9694 48.9466 33.5824 48.6924 33.0682L47.7959 33.5114C48.125 34.1771 48.5891 34.7082 49.1893 35.0891L49.7251 34.2447ZM48.6934 33.0702C48.4445 32.561 48.3116 31.9494 48.3116 31.2216H47.3116C47.3116 32.0714 47.4671 32.8386 47.7949 33.5093L48.6934 33.0702ZM48.3116 31.2216C48.3116 30.4865 48.4447 29.8696 48.6938 29.3571L47.7944 28.9199C47.4669 29.5939 47.3116 30.3658 47.3116 31.2216H48.3116ZM48.6928 29.3591C48.9473 28.8415 49.2919 28.4535 49.7251 28.1786L49.1893 27.3342C48.5884 27.7156 48.1243 28.2489 47.7954 28.9179L48.6928 29.3591ZM49.7239 28.1793C50.155 27.9075 50.6651 27.7642 51.2718 27.7642V26.7642C50.4998 26.7642 49.8001 26.9491 49.1905 27.3335L49.7239 28.1793ZM51.2718 27.7642C51.8786 27.7642 52.3864 27.9075 52.8136 28.1786L53.3494 27.3342C52.7425 26.9491 52.0438 26.7642 51.2718 26.7642V27.7642ZM52.8148 28.1793C53.2506 28.4541 53.5942 28.8413 53.8449 29.3571L54.7443 28.9199C54.4182 28.2491 53.9531 27.7149 53.3482 27.3335L52.8148 28.1793ZM53.8459 29.3591C54.0976 29.8712 54.2321 30.4873 54.2321 31.2216H55.2321C55.2321 30.365 55.0749 29.5924 54.7433 28.9179L53.8459 29.3591ZM54.2321 31.2216C54.2321 31.9487 54.0978 32.5595 53.8464 33.0682L54.7428 33.5114C55.0746 32.8401 55.2321 32.0722 55.2321 31.2216H54.2321ZM53.8454 33.0702C53.5949 33.5826 53.2513 33.9687 52.8148 34.244L53.3482 35.0898C53.9524 34.7088 54.4175 34.1769 54.7438 33.5093L53.8454 33.0702ZM52.8136 34.2447C52.3864 34.5158 51.8786 34.6591 51.2718 34.6591V35.6591C52.0438 35.6591 52.7425 35.4742 53.3494 35.0891L52.8136 34.2447ZM51.2718 34.6051C51.8836 34.6051 52.4312 34.4467 52.8754 34.094L52.2535 33.3109C52.0215 33.4951 51.7074 33.6051 51.2718 33.6051V34.6051ZM52.8754 34.094C53.2907 33.7642 53.5924 33.3333 53.7839 32.8175L52.8464 32.4695C52.7131 32.8286 52.5143 33.1037 52.2535 33.3109L52.8754 34.094ZM53.7839 32.8175C53.9688 32.3193 54.0588 31.7858 54.0588 31.2216H53.0588C53.0588 31.6782 52.9863 32.0926 52.8464 32.4695L53.7839 32.8175ZM54.0588 31.2216C54.0588 30.6573 53.9688 30.1227 53.7843 29.6219L52.846 29.9676C52.9863 30.3485 53.0588 30.765 53.0588 31.2216H54.0588ZM53.7843 29.6219C53.5933 29.1033 53.2923 28.6694 52.8777 28.3362L52.2512 29.1155C52.5127 29.3258 52.7122 29.6045 52.846 29.9676L53.7843 29.6219ZM52.8777 28.3362C52.4335 27.979 51.885 27.8182 51.2718 27.8182V28.8182C51.706 28.8182 52.0193 28.9291 52.2512 29.1155L52.8777 28.3362ZM51.2718 27.8182C50.6587 27.8182 50.1102 27.979 49.6659 28.3362L50.2925 29.1155C50.5244 28.9291 50.8377 28.8182 51.2718 28.8182V27.8182ZM49.6659 28.3362C49.2514 28.6694 48.9504 29.1033 48.7593 29.6219L49.6977 29.9676C49.8314 29.6045 50.0309 29.3258 50.2925 29.1155L49.6659 28.3362ZM48.7593 29.6219C48.5749 30.1227 48.4849 30.6573 48.4849 31.2216H49.4849C49.4849 30.765 49.5574 30.3485 49.6977 29.9676L48.7593 29.6219ZM48.4849 31.2216C48.4849 31.7858 48.5748 32.3193 48.7598 32.8175L49.6973 32.4695C49.5574 32.0926 49.4849 31.6782 49.4849 31.2216H48.4849ZM48.7598 32.8175C48.9513 33.3333 49.253 33.7642 49.6683 34.094L50.2902 33.3109C50.0293 33.1037 49.8306 32.8286 49.6973 32.4695L48.7598 32.8175ZM49.6683 34.094C50.1124 34.4467 50.6601 34.6051 51.2718 34.6051V33.6051C50.8363 33.6051 50.5221 33.4951 50.2902 33.3109L49.6683 34.094ZM56.5231 35H56.0231V35.5H56.5231V35ZM56.5231 27.3636V26.8636H56.0231V27.3636H56.5231ZM57.6566 27.3636H58.1566V26.8636H57.6566V27.3636ZM57.6566 28.517H57.1566V29.017H57.6566V28.517ZM57.7362 28.517V29.017H58.0848L58.2053 28.6899L57.7362 28.517ZM58.4918 27.5973L58.2207 27.1772L58.4918 27.5973ZM60.3413 27.2642H60.8413V26.8117L60.391 26.7667L60.3413 27.2642ZM60.3413 28.4574L60.22 28.9425L60.8413 29.0978V28.4574H60.3413ZM60.0678 28.4126L59.9856 28.906L59.9987 28.9078L60.0678 28.4126ZM58.631 28.6115L58.8647 29.0535L58.8666 29.0525L58.631 28.6115ZM57.945 29.2479L57.5204 28.9838L57.5195 28.9852L57.945 29.2479ZM57.6964 35V35.5H58.1964V35H57.6964ZM57.0231 35V27.3636H56.0231V35H57.0231ZM56.5231 27.8636H57.6566V26.8636H56.5231V27.8636ZM57.1566 27.3636V28.517H58.1566V27.3636H57.1566ZM57.6566 29.017H57.7362V28.017H57.6566V29.017ZM58.2053 28.6899C58.3041 28.4218 58.482 28.1988 58.763 28.0174L58.2207 27.1772C57.7725 27.4665 57.4466 27.8566 57.267 28.3442L58.2053 28.6899ZM58.763 28.0174C59.0423 27.8371 59.3581 27.7443 59.7248 27.7443V26.7443C59.1767 26.7443 58.6705 26.8868 58.2207 27.1772L58.763 28.0174ZM59.7248 27.7443C59.8051 27.7443 59.9083 27.7459 60.0351 27.7491L60.0608 26.7495C59.9291 26.7461 59.8168 26.7443 59.7248 26.7443V27.7443ZM60.0351 27.7491C60.1612 27.7524 60.2441 27.757 60.2915 27.7617L60.391 26.7667C60.3058 26.7582 60.1932 26.7528 60.0608 26.7495L60.0351 27.7491ZM59.8413 27.2642V28.4574H60.8413V27.2642H59.8413ZM60.4625 27.9723C60.3917 27.9546 60.272 27.9363 60.1369 27.9174L59.9987 28.9078C60.068 28.9175 60.1221 28.9256 60.1623 28.9322C60.2068 28.9395 60.2218 28.9429 60.22 28.9425L60.4625 27.9723ZM60.15 27.9194C59.981 27.8913 59.8059 27.8778 59.6254 27.8778V28.8778C59.7564 28.8778 59.8762 28.8876 59.9856 28.9058L60.15 27.9194ZM59.6254 27.8778C59.1822 27.8778 58.7681 27.9714 58.3955 28.1705L58.8666 29.0525C59.0773 28.94 59.3261 28.8778 59.6254 28.8778V27.8778ZM58.3973 28.1695C58.0323 28.3625 57.7371 28.6354 57.5204 28.9838L58.3695 29.5119C58.4909 29.3168 58.6531 29.1654 58.8647 29.0535L58.3973 28.1695ZM57.5195 28.9852C57.3006 29.3399 57.1964 29.739 57.1964 30.1676H58.1964C58.1964 29.9068 58.2579 29.6928 58.3704 29.5105L57.5195 28.9852ZM57.1964 30.1676V35H58.1964V30.1676H57.1964ZM57.6964 34.5H56.5231V35.5H57.6964V34.5ZM62.6978 34.6768L62.4204 35.0929L62.4224 35.0942L62.6978 34.6768ZM61.5543 33.3047L61.1007 33.515L61.1012 33.516L61.5543 33.3047ZM61.5543 29.1136L61.1012 28.9023L61.5543 29.1136ZM62.7028 27.7464L62.4287 27.3283L62.7028 27.7464ZM65.5813 27.5128L65.3322 27.9463L65.3381 27.9496L65.5813 27.5128ZM66.2475 28.0696L65.8436 28.3645L65.8491 28.3717L66.2475 28.0696ZM66.6104 28.5767L66.1912 28.8492L66.3391 29.0767H66.6104V28.5767ZM66.7099 28.5767V29.0767H67.2099V28.5767H66.7099ZM66.7099 24.8182V24.3182H66.2099V24.8182H66.7099ZM67.8832 24.8182H68.3832V24.3182H67.8832V24.8182ZM67.8832 35V35.5H68.3832V35H67.8832ZM66.7496 35H66.2496V35.5H66.7496V35ZM66.7496 33.8267H67.2496V33.3267H66.7496V33.8267ZM66.6104 33.8267V33.3267H66.3319L66.1853 33.5635L66.6104 33.8267ZM66.2425 34.3537L66.6403 34.6567L66.6425 34.6537L66.2425 34.3537ZM65.5614 34.9155L65.8026 35.3535L65.8063 35.3514L65.5614 34.9155ZM65.7354 33.7372L66.0367 34.1362L66.0393 34.1343L65.7354 33.7372ZM66.4762 32.7081L66.9426 32.8883L66.9431 32.8871L66.4762 32.7081ZM66.4812 29.6854L66.0145 29.8649L66.015 29.8661L66.4812 29.6854ZM65.7454 28.6811L65.4467 29.0821L65.4493 29.084L65.7454 28.6811ZM63.2994 28.701L63.6038 29.0976L63.6044 29.0972L63.2994 28.701ZM62.5586 29.7301L62.0915 29.5518L62.0907 29.5538L62.5586 29.7301ZM62.5636 32.6634L62.0951 32.8382L62.0967 32.8424L62.5636 32.6634ZM63.3093 33.7173L62.9974 34.1082L63.0018 34.1116L63.3093 33.7173ZM64.3832 34.6591C63.8355 34.6591 63.3713 34.5222 62.9732 34.2595L62.4224 35.0942C62.9987 35.4745 63.6581 35.6591 64.3832 35.6591V34.6591ZM62.9751 34.2608C62.5725 33.9924 62.2483 33.6098 62.0075 33.0934L61.1012 33.516C61.4106 34.1795 61.8487 34.7117 62.4204 35.0929L62.9751 34.2608ZM62.0079 33.0944C61.7698 32.5807 61.6417 31.9545 61.6417 31.2017H60.6417C60.6417 32.0663 60.7887 32.8421 61.1007 33.515L62.0079 33.0944ZM61.6417 31.2017C61.6417 30.4561 61.7696 29.8352 62.0075 29.3249L61.1012 28.9023C60.7889 29.572 60.6417 30.3432 60.6417 31.2017H61.6417ZM62.0075 29.3249C62.2477 28.8097 62.5725 28.4297 62.9769 28.1646L62.4287 27.3283C61.852 27.7062 61.4111 28.2376 61.1012 28.9023L62.0075 29.3249ZM62.9769 28.1646C63.3781 27.9016 63.8477 27.7642 64.4031 27.7642V26.7642C63.6724 26.7642 63.0085 26.9483 62.4287 27.3283L62.9769 28.1646ZM64.4031 27.7642C64.8529 27.7642 65.1481 27.8405 65.3322 27.9463L65.8305 27.0793C65.4378 26.8536 64.9476 26.7642 64.4031 26.7642V27.7642ZM65.3381 27.9496C65.5843 28.0867 65.7444 28.2284 65.8437 28.3644L66.6513 27.7748C66.4457 27.4932 66.1617 27.2637 65.8246 27.0759L65.3381 27.9496ZM65.8491 28.3717C66.0015 28.5727 66.1144 28.731 66.1912 28.8492L67.0297 28.3042C66.9342 28.1573 66.8051 27.9775 66.646 27.7675L65.8491 28.3717ZM66.6104 29.0767H66.7099V28.0767H66.6104V29.0767ZM67.2099 28.5767V24.8182H66.2099V28.5767H67.2099ZM66.7099 25.3182H67.8832V24.3182H66.7099V25.3182ZM67.3832 24.8182V35H68.3832V24.8182H67.3832ZM67.8832 34.5H66.7496V35.5H67.8832V34.5ZM67.2496 35V33.8267H66.2496V35H67.2496ZM66.7496 33.3267H66.6104V34.3267H66.7496V33.3267ZM66.1853 33.5635C66.1102 33.6848 65.9974 33.8472 65.8425 34.0537L66.6425 34.6537C66.8058 34.436 66.9383 34.247 67.0356 34.0899L66.1853 33.5635ZM65.8448 34.0507C65.7372 34.192 65.5685 34.338 65.3165 34.4796L65.8063 35.3514C66.1443 35.1615 66.4297 34.933 66.6403 34.6567L65.8448 34.0507ZM65.3203 34.4775C65.1253 34.5848 64.8253 34.6591 64.3832 34.6591V35.6591C64.9221 35.6591 65.4076 35.5709 65.8026 35.3535L65.3203 34.4775ZM64.5423 34.6051C65.1039 34.6051 65.612 34.457 66.0367 34.1362L65.4341 33.3382C65.2092 33.508 64.9219 33.6051 64.5423 33.6051V34.6051ZM66.0393 34.1343C66.4474 33.8219 66.7454 33.3988 66.9426 32.8883L66.0098 32.5279C65.869 32.8924 65.673 33.1553 65.4316 33.3402L66.0393 34.1343ZM66.9431 32.8871C67.1383 32.3781 67.2298 31.8066 67.2298 31.1818H66.2298C66.2298 31.7105 66.1522 32.1565 66.0094 32.5291L66.9431 32.8871ZM67.2298 31.1818C67.2298 30.5644 67.1401 30.002 66.9474 29.5047L66.015 29.8661C66.1537 30.2239 66.2298 30.6591 66.2298 31.1818H67.2298ZM66.9479 29.5059C66.7529 28.999 66.454 28.5813 66.0414 28.2782L65.4493 29.084C65.6863 29.2582 65.878 29.51 66.0145 29.8649L66.9479 29.5059ZM66.0441 28.2801C65.6183 27.963 65.1073 27.8182 64.5423 27.8182V28.8182C64.9317 28.8182 65.2229 28.9153 65.4467 29.0821L66.0441 28.2801ZM64.5423 27.8182C63.9563 27.8182 63.4288 27.9702 62.9943 28.3048L63.6044 29.0972C63.8328 28.9213 64.1339 28.8182 64.5423 28.8182V27.8182ZM62.9949 28.3044C62.5846 28.6193 62.286 29.0422 62.0915 29.5518L63.0257 29.9084C63.1626 29.5497 63.3579 29.2864 63.6038 29.0976L62.9949 28.3044ZM62.0907 29.5538C61.9039 30.0495 61.815 30.5945 61.815 31.1818H62.815C62.815 30.6953 62.8885 30.2724 63.0265 29.9065L62.0907 29.5538ZM61.815 31.1818C61.815 31.7764 61.9057 32.3305 62.0951 32.8381L63.032 32.4886C62.89 32.1079 62.815 31.6743 62.815 31.1818H61.815ZM62.0967 32.8424C62.2936 33.3557 62.5914 33.7841 62.9974 34.1081L63.6212 33.3265C63.371 33.1269 63.1716 32.8526 63.0304 32.4843L62.0967 32.8424ZM63.0018 34.1116C63.4352 34.4497 63.9597 34.6051 64.5423 34.6051V33.6051C64.1438 33.6051 63.8462 33.502 63.6168 33.3231L63.0018 34.1116ZM71.1246 34.9055L70.9117 35.358L70.9149 35.3594L71.1246 34.9055ZM70.185 34.1051L69.7678 34.3806L69.769 34.3825L70.185 34.1051ZM70.0955 31.7685L70.5178 32.0362L70.5192 32.0339L70.0955 31.7685ZM70.7866 31.1222L70.5489 30.6822L70.7866 31.1222ZM71.7411 30.7741L71.8481 31.2626L71.8515 31.2618L71.7411 30.7741ZM72.8001 30.5852L72.7363 30.0893L72.7352 30.0895L72.8001 30.5852ZM73.9286 30.451L73.9801 30.9484L73.9851 30.9478L73.9286 30.451ZM74.565 30.2869L74.3203 29.8508L74.3158 29.8535L74.565 30.2869ZM74.3661 28.706L74.0082 29.0551L74.0104 29.0573L74.3661 28.706ZM71.8406 28.6662L72.1458 29.0622L71.8406 28.6662ZM71.1694 29.4517L71.0012 29.9226L71.4308 30.076L71.6229 29.6623L71.1694 29.4517ZM70.0558 29.054L69.5962 28.857L69.3866 29.3459L69.8876 29.5248L70.0558 29.054ZM70.8512 27.9702L71.1587 28.3644L71.1593 28.364L70.8512 27.9702ZM71.945 27.4233L72.071 27.9072L72.0738 27.9064L71.945 27.4233ZM73.9634 27.3537L73.8713 27.8452L73.8771 27.8462L73.9634 27.3537ZM74.8931 27.7067L74.6359 28.1354L74.638 28.1367L74.8931 27.7067ZM75.6438 28.517L75.2058 28.7582L75.6438 28.517ZM75.9421 35V35.5H76.4421V35H75.9421ZM74.7688 35H74.2688V35.5H74.7688V35ZM74.7688 33.9659H75.2688V33.4659H74.7688V33.9659ZM74.7092 33.9659V33.4659H74.3945L74.2584 33.7495L74.7092 33.9659ZM74.3114 34.4979L74.6681 34.8483L74.3114 34.4979ZM73.5707 34.9801L73.3731 34.5208L73.5707 34.9801ZM73.7944 33.8516L73.5478 33.4166L73.5458 33.4177L73.7944 33.8516ZM74.5202 33.1456L74.0867 32.8964L74.0846 32.9002L74.5202 33.1456ZM74.7688 31.1619H75.2688V29.7809L74.3847 30.8418L74.7688 31.1619ZM74.4407 31.326L74.5755 31.8075L74.5818 31.8057L74.4407 31.326ZM73.864 31.4503L73.94 31.9445L73.9462 31.9435L73.864 31.4503ZM73.2326 31.5398L73.2896 32.0366L73.2966 32.0357L73.2326 31.5398ZM72.7404 31.5994L72.8051 32.0952L72.8056 32.0952L72.7404 31.5994ZM71.8853 31.7933L72.0416 32.2683L72.0452 32.2671L71.8853 31.7933ZM71.2489 32.1861L70.8818 31.8467L70.8815 31.8469L71.2489 32.1861ZM71.4627 33.8168L71.1781 34.2279L71.1833 34.2314L71.4627 33.8168ZM72.4421 34.679C72.0224 34.679 71.6559 34.6003 71.3344 34.4517L70.9149 35.3594C71.3822 35.5754 71.8941 35.679 72.4421 35.679V34.679ZM71.3375 34.4531C71.0219 34.3046 70.7804 34.0967 70.601 33.8278L69.769 34.3825C70.0537 34.8095 70.4386 35.1353 70.9117 35.3579L71.3375 34.4531ZM70.6022 33.8296C70.4334 33.5739 70.337 33.2496 70.337 32.8324H69.337C69.337 33.4095 69.4726 33.9337 69.7678 34.3806L70.6022 33.8296ZM70.337 32.8324C70.337 32.4567 70.4114 32.204 70.5178 32.0362L69.6733 31.5007C69.435 31.8765 69.337 32.3331 69.337 32.8324H70.337ZM70.5192 32.0339C70.6452 31.8328 70.8112 31.6772 71.0242 31.5621L70.5489 30.6822C70.1853 30.8787 69.8905 31.1539 69.6718 31.503L70.5192 32.0339ZM71.0242 31.5621C71.2681 31.4303 71.5418 31.3297 71.8481 31.2626L71.6341 30.2857C71.2445 30.3711 70.8818 30.5024 70.5489 30.6822L71.0242 31.5621ZM71.8515 31.2618C72.1879 31.1856 72.5257 31.1254 72.8649 31.081L72.7352 30.0895C72.3652 30.1379 71.997 30.2036 71.6307 30.2865L71.8515 31.2618ZM72.8638 31.0811C73.3259 31.0217 73.6975 30.9776 73.9801 30.9483L73.8772 29.9536C73.583 29.9841 73.2023 30.0294 72.7363 30.0893L72.8638 31.0811ZM73.9851 30.9478C74.2937 30.9127 74.59 30.8493 74.8142 30.7204L74.3158 29.8535C74.2748 29.877 74.1469 29.923 73.8722 29.9542L73.9851 30.9478ZM74.8096 30.723C75.1392 30.5381 75.2688 30.2135 75.2688 29.8892H74.2688C74.2688 29.9251 74.2623 29.9229 74.2729 29.9023C74.2783 29.8918 74.2862 29.8804 74.2964 29.8699C74.3065 29.8596 74.3155 29.8536 74.3204 29.8509L74.8096 30.723ZM75.2688 29.8892V29.8494H74.2688V29.8892H75.2688ZM75.2688 29.8494C75.2688 29.2664 75.107 28.7445 74.7218 28.3546L74.0104 29.0573C74.1622 29.211 74.2688 29.4514 74.2688 29.8494H75.2688ZM74.724 28.3568C74.3309 27.9539 73.7753 27.7983 73.158 27.7983V28.7983C73.6212 28.7983 73.871 28.9145 74.0082 29.0551L74.724 28.3568ZM73.158 27.7983C72.5301 27.7983 71.9696 27.9354 71.5353 28.2702L72.1458 29.0622C72.3478 28.9065 72.6656 28.7983 73.158 28.7983V27.7983ZM71.5353 28.2702C71.1725 28.5499 70.8878 28.8709 70.7159 29.2411L71.6229 29.6623C71.7095 29.4757 71.8723 29.2731 72.1458 29.0622L71.5353 28.2702ZM71.3376 28.9808L70.2239 28.5831L69.8876 29.5248L71.0012 29.9226L71.3376 28.9808ZM70.5153 29.2509C70.6876 28.8489 70.906 28.5616 71.1587 28.3644L70.5437 27.5759C70.1336 27.8958 69.8216 28.331 69.5962 28.857L70.5153 29.2509ZM71.1593 28.364C71.4425 28.1425 71.7456 27.9919 72.071 27.9071L71.8189 26.9394C71.3555 27.0602 70.9294 27.2742 70.5432 27.5763L71.1593 28.364ZM72.0738 27.9064C72.4324 27.8108 72.7802 27.7642 73.1183 27.7642V26.7642C72.6873 26.7642 72.2529 26.8237 71.8161 26.9402L72.0738 27.9064ZM73.1183 27.7642C73.3246 27.7642 73.5745 27.7895 73.8713 27.8451L74.0556 26.8623C73.716 26.7986 73.4024 26.7642 73.1183 26.7642V27.7642ZM73.8771 27.8462C74.1343 27.8913 74.3867 27.9859 74.6359 28.1354L75.1504 27.2779C74.803 27.0695 74.4355 26.9288 74.0497 26.8612L73.8771 27.8462ZM74.638 28.1367C74.8503 28.2627 75.0423 28.4612 75.2058 28.7582L76.0818 28.2759C75.8476 27.8504 75.5391 27.5086 75.1483 27.2767L74.638 28.1367ZM75.2058 28.7582C75.3493 29.0189 75.4421 29.4096 75.4421 29.9688H76.4421C76.4421 29.3148 76.3361 28.7378 76.0818 28.2759L75.2058 28.7582ZM75.4421 29.9688V35H76.4421V29.9688H75.4421ZM75.9421 34.5H74.7688V35.5H75.9421V34.5ZM75.2688 35V33.9659H74.2688V35H75.2688ZM74.7688 33.4659H74.7092V34.4659H74.7688V33.4659ZM74.2584 33.7495C74.2106 33.8491 74.1173 33.982 73.9548 34.1475L74.6681 34.8483C74.8768 34.6359 75.0486 34.4142 75.1599 34.1823L74.2584 33.7495ZM73.9548 34.1475C73.825 34.2795 73.637 34.4073 73.3731 34.5208L73.7682 35.4394C74.1208 35.2878 74.4267 35.094 74.6681 34.8483L73.9548 34.1475ZM73.3731 34.5208C73.144 34.6194 72.8392 34.679 72.4421 34.679V35.679C72.9333 35.679 73.3809 35.606 73.7682 35.4394L73.3731 34.5208ZM72.6211 34.625C73.1496 34.625 73.6315 34.5211 74.0429 34.2854L73.5458 33.4177C73.3209 33.5466 73.0207 33.625 72.6211 33.625V34.625ZM74.041 34.2865C74.4321 34.0648 74.7438 33.7675 74.9559 33.391L74.0846 32.9002C73.9719 33.1004 73.7997 33.2738 73.5478 33.4166L74.041 34.2865ZM74.9537 33.3947C75.161 33.0342 75.2688 32.6454 75.2688 32.2358H74.2688C74.2688 32.4625 74.2109 32.6803 74.0867 32.8965L74.9537 33.3947ZM75.2688 32.2358V31.1619H74.2688V32.2358H75.2688ZM74.3847 30.8418C74.4053 30.8172 74.4226 30.804 74.4285 30.7997C74.4348 30.7952 74.435 30.7959 74.4259 30.8005C74.4065 30.8102 74.367 30.8265 74.2996 30.8463L74.5818 31.8057C74.6835 31.7758 74.7832 31.7399 74.8731 31.6949C74.9579 31.6525 75.0658 31.5865 75.1529 31.482L74.3847 30.8418ZM74.3059 30.8445C74.1616 30.8849 73.9876 30.9228 73.7818 30.9571L73.9462 31.9435C74.1779 31.9049 74.3884 31.8599 74.5755 31.8075L74.3059 30.8445ZM73.788 30.9561C73.5763 30.9887 73.3699 31.0179 73.1686 31.0439L73.2966 32.0357C73.5063 32.0086 73.7208 31.9782 73.94 31.9445L73.788 30.9561ZM73.1756 31.043C72.9721 31.0664 72.805 31.0866 72.6752 31.1037L72.8056 32.0952C72.9277 32.0791 73.0888 32.0596 73.2896 32.0365L73.1756 31.043ZM72.6757 31.1036C72.3416 31.1472 72.0244 31.2187 71.7254 31.3196L72.0452 32.2671C72.2765 32.189 72.5294 32.1312 72.8051 32.0952L72.6757 31.1036ZM71.729 31.3184C71.3989 31.427 71.1101 31.5997 70.8818 31.8467L71.6161 32.5255C71.7126 32.4211 71.848 32.332 72.0416 32.2683L71.729 31.3184ZM70.8815 31.8469C70.6159 32.1348 70.5103 32.5035 70.5103 32.892H71.5103C71.5103 32.684 71.5638 32.5821 71.6163 32.5252L70.8815 31.8469ZM70.5103 32.892C70.5103 33.4425 70.725 33.9141 71.1781 34.2279L71.7473 33.4057C71.5972 33.3018 71.5103 33.157 71.5103 32.892H70.5103ZM71.1833 34.2314C71.5906 34.5059 72.0811 34.625 72.6211 34.625V33.625C72.2264 33.625 71.9447 33.5386 71.7421 33.4021L71.1833 34.2314Z" fill="#FE1C1A"/>
<defs>
<filter id="filter0_d_3_6" x="0" y="0" width="116" height="116" filterUnits="userSpaceOnUse" color-interpolation-filters="sRGB">
<feFlood flood-opacity="0" result="BackgroundImageFix"/>
<feColorMatrix in="SourceAlpha" type="matrix" values="0 0 0 0 0 0 0 0 0 0 0 0 0 0 0 0 0 0 127 0" result="hardAlpha"/>
<feOffset dy="4"/>
<feGaussianBlur stdDeviation="4"/>
<feComposite in2="hardAlpha" operator="out"/>
<feColorMatrix type="matrix" values="0 0 0 0 0 0 0 0 0 0 0 0 0 0 0 0 0 0 0.5 0"/>
<feBlend mode="normal" in2="BackgroundImageFix" result="effect1_dropShadow_3_6"/>
<feBlend mode="normal" in="SourceGraphic" in2="effect1_dropShadow_3_6" result="shape"/>
</filter>
</defs>
</svg>
