<svg width="46" height="30" viewBox="0 0 46 30" fill="none" xmlns="http://www.w3.org/2000/svg">
<path d="M5.28358 28.3571L1 5.79685C2.82766 4.65457 10.7095 5.3209 14.4219 5.79685C16.478 8.08143 17.7536 21.7889 18.1343 28.3571H5.28358Z" fill="#008600" stroke="black"/>
<path d="M33.8408 23.5024C33.3839 22.5885 23.1795 26.3581 18.1344 28.3571C18.1344 19.6757 15.8498 9.69971 14.7075 5.79688C20.4189 4.08345 28.415 2.08445 28.9861 1.51331C29.443 1.05639 32.413 15.9823 33.8408 23.5024Z" fill="#FFFEFF" stroke="black"/>
<path d="M41.2656 26.9291C40.3518 23.5023 35.935 23.0263 33.8408 23.2167C32.4129 16.4582 29.443 2.65552 28.986 1.51323C28.4149 0.085367 39.2666 1.7988 40.9801 4.65452C42.6935 7.51024 45.2637 26.9291 44.9781 27.2147C44.7496 27.4432 42.4079 27.1195 41.2656 26.9291Z" fill="#FE1C1A" stroke="black"/>
</svg>
